<?xml version="1.0" standalone="no"?>
<!DOCTYPE svg PUBLIC "-//W3C//DTD SVG 20010904//EN"
 "http://www.w3.org/TR/2001/REC-SVG-20010904/DTD/svg10.dtd">
<svg version="1.0" xmlns="http://www.w3.org/2000/svg"
 width="1792.000000pt" height="2400.000000pt" viewBox="0 0 1792.000000 2400.000000"
 preserveAspectRatio="xMidYMid meet">
<metadata>
Created by potrace 1.16, written by Peter Selinger 2001-2019
</metadata>
<g transform="translate(0.000000,2400.000000) scale(0.100000,-0.100000)"
fill="#000000" stroke="none">
<path d="M0 12000 l0 -12000 8960 0 8960 0 0 12000 0 12000 -8960 0 -8960 0 0
-12000z m16353 10815 c191 -50 352 -210 402 -401 13 -51 15 -231 13 -1469 -1
-775 -5 -1367 -8 -1315 -3 52 -8 91 -10 85 -6 -14 -15 964 -18 1852 -1 413 -6
773 -11 800 -12 61 -43 141 -75 190 -35 56 -135 147 -192 176 -116 58 -95 57
-1118 57 -762 0 -937 -2 -933 -13 3 -8 -4 -14 -19 -15 -28 -2 -33 14 -6 21 9
3 -14 5 -52 6 -73 1 -89 -8 -18 -11 23 -1 39 -5 36 -10 -4 -5 -12 -7 -20 -4
-7 3 -18 -3 -24 -14 -12 -22 -44 -16 -36 7 4 8 1 11 -5 7 -6 -3 -8 -17 -5 -30
4 -14 2 -24 -4 -24 -5 0 -10 14 -10 31 0 26 -3 29 -14 20 -10 -9 -15 -8 -19 3
-4 10 2 16 16 19 12 2 -3 4 -33 4 -35 1 -46 -2 -30 -6 14 -3 25 -12 24 -18 -1
-7 -2 -21 -3 -30 -1 -15 -3 -15 -15 2 -13 18 -14 17 -11 -8 2 -15 -1 -25 -6
-21 -5 3 -7 9 -4 14 3 4 -4 6 -15 3 -11 -3 -20 0 -20 6 0 6 -7 11 -15 11 -8 0
-15 -6 -15 -14 0 -21 -23 -25 -38 -7 -8 9 -11 10 -7 4 4 -8 0 -13 -9 -13 -10
0 -13 6 -10 15 4 8 1 15 -5 15 -11 0 -15 -13 -12 -37 1 -6 -3 -14 -9 -18 -5
-3 -7 0 -4 9 8 20 -29 39 -44 24 -9 -9 -12 -7 -12 7 0 18 0 18 -16 -1 -8 -10
-13 -13 -9 -7 4 9 1 11 -9 7 -9 -3 -17 -10 -17 -15 -1 -5 -2 -14 -3 -21 0 -6
-7 -12 -14 -14 -7 -1 -8 0 -3 2 5 3 7 14 4 24 -3 11 -9 18 -13 15 -5 -3 -11
-1 -15 4 -3 6 -12 8 -19 5 -7 -3 -19 3 -27 12 -12 16 -12 17 3 11 12 -4 15 -2
11 9 -3 7 -14 14 -25 14 -10 0 -16 5 -13 10 4 7 -77 10 -234 11 -133 1 -245 3
-251 4 -5 1 -326 4 -712 6 -387 1 -676 5 -643 8 41 4 5 8 -115 11 -96 3 874 7
2155 8 2037 2 2338 0 2388 -13z m-2363 -1312 l52 -30 -81 -47 -80 -46 -76 46
c-41 25 -75 47 -75 50 0 2 26 17 58 34 72 38 126 36 202 -7z m-138 -246 c256
-148 244 -132 135 -191 l-54 -29 -179 110 c-98 60 -203 123 -231 139 -29 16
-53 31 -53 34 0 12 126 78 140 73 8 -2 117 -64 242 -136z m-449 -24 c18 -9 49
-27 70 -41 l38 -25 -36 -29 c-63 -53 -65 -62 -65 -314 0 -207 2 -229 19 -258
27 -43 43 -54 326 -216 138 -79 254 -146 259 -151 5 -4 -15 -20 -45 -34 -88
-45 -110 -39 -364 110 -121 70 -235 139 -254 153 -19 14 -44 47 -57 76 -22 49
-23 63 -26 331 -3 270 -2 281 18 320 22 40 68 95 79 95 3 0 20 -7 38 -17z
m1073 -55 c17 -39 19 -69 19 -338 l0 -295 -27 -51 c-15 -28 -42 -62 -60 -75
-40 -30 -246 -149 -259 -149 -19 0 -140 73 -132 80 4 5 64 41 133 80 69 40
136 82 149 94 48 43 51 66 51 364 l0 279 48 26 c26 15 50 27 53 27 3 0 15 -19
25 -42z m-13306 -653 c3 160 5 -1510 5 -3710 1 -2200 -2 -3932 -5 -3850 -4
127 -6 100 -10 -170 -3 -176 -5 1622 -5 3995 0 2373 2 4119 5 3880 l5 -435 5
290z m12534 524 c39 -23 45 -36 21 -46 -33 -12 -45 -59 -45 -176 0 -105 2
-115 23 -134 32 -29 154 -93 178 -93 28 0 166 77 184 103 12 16 15 53 15 158
0 117 2 138 18 151 20 19 97 58 112 58 6 0 10 -71 10 -209 0 -208 0 -210 -25
-239 -30 -36 -259 -172 -301 -179 -26 -4 -53 7 -155 67 -211 123 -199 104
-199 313 0 90 4 167 10 178 9 16 92 67 112 69 4 0 23 -9 42 -21z m-8044 -871
c0 6 7 12 16 12 14 0 14 -1 0 -16 -20 -20 -21 -30 -1 -14 8 7 22 10 30 6 8 -3
15 0 15 6 0 9 3 9 12 0 7 -7 22 -12 33 -12 13 0 26 -9 32 -22 l10 -22 5 22 c4
12 2 20 -3 16 -5 -3 -9 1 -9 8 0 8 11 15 25 16 14 1 25 -3 25 -8 0 -6 -4 -10
-10 -10 -5 0 -10 -7 -10 -16 0 -8 4 -13 9 -9 5 3 13 1 16 -5 4 -6 3 -10 -2 -9
-14 3 -43 -13 -43 -23 0 -6 7 -8 15 -4 20 7 20 6 -21 -69 -38 -70 -42 -101 -4
-40 12 19 27 32 32 29 6 -4 8 -3 5 3 -4 6 0 19 8 29 10 13 14 14 15 5 0 -8 6
-11 16 -7 15 6 15 4 3 -11 -8 -10 -22 -26 -31 -37 -24 -27 -15 -31 18 -9 28
18 28 18 20 -2 -10 -24 -19 -65 -10 -47 3 6 12 12 20 12 7 0 11 6 8 14 -3 8
-1 17 5 21 6 3 11 3 11 -2 0 -4 5 -15 10 -23 7 -12 13 -11 34 10 15 13 26 18
26 12 0 -7 7 -12 16 -12 9 0 19 -10 22 -22 5 -18 8 -13 12 22 l5 44 39 -39
c36 -37 37 -38 17 -8 -24 36 -21 53 10 53 14 0 18 4 13 13 -5 8 -3 8 9 -2 9
-7 15 -17 12 -21 -2 -4 7 -5 20 -2 14 2 22 8 19 13 -3 5 0 9 5 9 6 0 11 -6 11
-12 0 -9 4 -8 10 2 9 13 11 13 19 1 5 -8 23 -15 39 -16 17 -1 43 -10 58 -20
l29 -18 -21 24 c-12 13 -25 31 -29 39 -7 13 -5 12 11 -1 23 -19 68 -23 61 -6
-6 15 95 15 115 0 24 -18 86 -43 107 -43 15 0 21 -6 21 -21 0 -18 2 -19 15 -9
12 10 15 9 15 -4 0 -11 7 -16 18 -14 11 2 18 -4 20 -19 2 -12 9 -24 17 -27 9
-3 12 0 8 10 -3 7 0 14 6 14 7 0 14 -7 17 -15 4 -8 12 -15 19 -15 8 0 21 -7
30 -16 13 -13 21 -14 40 -6 19 9 26 7 45 -13 12 -13 28 -21 35 -19 7 3 16 1
20 -5 3 -6 -2 -11 -12 -12 -12 0 -9 -4 10 -11 15 -5 25 -14 22 -19 -4 -5 1 -6
10 -3 11 5 15 2 13 -7 -3 -13 32 -56 49 -61 5 -2 7 -5 6 -8 -1 -3 -5 -13 -8
-22 -5 -12 -1 -20 9 -24 33 -13 73 -59 70 -81 -3 -15 3 -23 21 -27 14 -4 25
-13 25 -21 0 -8 5 -15 10 -15 6 0 10 6 10 13 0 7 3 8 8 2 4 -5 21 -18 37 -27
17 -9 30 -20 31 -25 2 -22 18 -70 27 -81 8 -10 7 -16 -4 -23 -10 -6 -10 -9 -1
-9 6 0 12 -8 12 -17 0 -15 -2 -16 -10 -3 -8 13 -10 13 -10 -2 0 -14 -8 -12
-46 14 -25 16 -49 41 -54 54 -5 13 -12 24 -15 24 -4 0 -3 -4 0 -10 3 -5 0 -7
-8 -4 -8 3 -18 15 -21 27 -5 17 -8 19 -15 8 -6 -9 -11 -10 -15 -2 -5 7 -15 7
-32 1 -17 -7 -23 -7 -19 0 3 6 -1 10 -10 10 -11 0 -15 -5 -12 -14 4 -11 0 -11
-25 2 -17 8 -50 17 -72 18 -23 2 -50 8 -61 13 -30 15 -115 30 -115 21 0 -5
-44 -8 -97 -7 -83 2 -97 0 -95 -13 2 -8 0 -12 -4 -7 -4 4 -16 -1 -27 -10 -19
-17 -20 -17 -14 0 4 11 3 16 -3 12 -6 -3 -10 -12 -10 -19 0 -24 -28 -40 -45
-26 -11 9 -19 6 -42 -16 -15 -16 -37 -30 -48 -31 -16 -3 -17 -1 -5 7 9 6 10
10 3 10 -6 0 -18 -6 -26 -14 -11 -11 -17 -12 -27 -3 -10 9 -14 9 -17 0 -3 -7
-11 -13 -19 -13 -9 0 -13 4 -10 9 9 15 -16 19 -54 9 -66 -17 -82 -17 -76 -2 3
9 -1 14 -14 14 -16 0 -18 -4 -11 -22 5 -14 15 -22 26 -20 14 3 15 1 4 -11 -8
-8 -15 -11 -17 -6 -2 5 -10 9 -17 9 -7 0 -15 -4 -17 -9 -1 -5 -9 -2 -17 6 -11
12 -11 14 0 11 8 -1 15 0 17 5 6 18 0 25 -18 20 -11 -3 -20 0 -20 6 0 8 -6 9
-18 2 -11 -6 -24 -6 -33 0 -7 5 -10 9 -6 9 5 0 2 7 -7 15 -18 18 -52 20 -60 3
-2 -7 -4 -2 -3 11 1 16 -4 25 -16 27 -27 4 -31 11 -30 49 1 42 -9 45 -24 8
l-12 -28 4 28 c4 30 -20 68 -39 61 -6 -2 -22 11 -35 29 -13 17 -21 24 -18 15
3 -9 0 -19 -9 -22 -12 -5 -18 5 -16 25 1 4 -16 7 -36 7 -20 -1 -44 2 -52 4
-68 22 -94 29 -157 39 -40 7 -73 16 -73 20 0 5 -22 9 -49 9 -32 0 -53 5 -61
15 -8 9 -20 13 -29 9 -31 -13 -81 -13 -81 0 0 9 -15 12 -51 9 -31 -2 -48 1
-44 7 7 11 -41 -7 -62 -23 -15 -11 2 -51 17 -42 5 3 3 -9 -5 -27 -12 -31 -12
-34 8 -45 12 -7 16 -12 9 -13 -7 0 -11 -4 -8 -9 9 -14 -20 -45 -34 -36 -11 7
-9 10 6 16 13 5 7 8 -23 8 -24 1 -43 6 -43 11 0 6 5 10 10 10 16 0 12 30 -5
36 -8 3 -17 14 -20 25 -8 26 -55 25 -89 -2 -31 -25 -32 -29 -6 -59 18 -21 19
-25 5 -39 -9 -9 -24 -27 -35 -40 -11 -13 -20 -20 -20 -15 0 6 5 15 11 21 8 8
6 11 -7 10 -11 -1 -24 9 -32 26 -7 15 -19 27 -26 27 -13 0 -126 -106 -126
-118 0 -3 -8 -14 -17 -25 -13 -15 -14 -18 -3 -12 8 5 -5 -11 -28 -34 -24 -23
-41 -45 -39 -48 3 -2 15 5 26 16 12 12 28 21 36 21 12 0 9 -7 -10 -26 -14 -14
-22 -30 -19 -36 4 -7 2 -8 -4 -4 -13 7 -72 -23 -72 -36 0 -4 -7 -8 -16 -8 -9
0 -12 5 -8 12 4 7 3 8 -5 4 -6 -4 -9 -12 -6 -17 4 -5 -1 -9 -10 -9 -11 0 -15
5 -11 15 3 8 0 15 -5 15 -6 0 -9 9 -6 20 5 18 4 19 -16 5 -12 -8 -31 -15 -42
-15 -16 0 -17 -2 -5 -10 10 -7 11 -10 3 -11 -28 -3 -32 -4 -40 -13 -5 -5 -3
-6 5 -2 7 4 12 1 12 -8 0 -11 -9 -16 -27 -16 -16 0 -59 -3 -97 -7 -63 -6 -69
-5 -63 11 4 10 3 15 -3 11 -12 -7 -7 32 15 115 21 81 28 110 29 132 0 9 4 14
8 12 4 -3 8 6 8 20 0 14 4 26 10 26 5 0 7 6 4 14 -9 24 91 130 133 140 24 5
26 4 12 -6 -20 -16 -21 -48 -2 -48 12 0 11 -3 -2 -16 -20 -20 -15 -50 8 -46 9
2 17 -2 17 -8 0 -5 -4 -10 -9 -10 -5 0 -11 -9 -14 -20 -3 -11 -1 -20 3 -20 5
0 11 8 13 18 3 10 5 6 6 -10 1 -17 7 -28 16 -28 9 0 12 6 9 15 -7 17 -3 18 21
9 13 -6 14 -9 3 -16 -9 -7 -7 -8 9 -5 16 4 32 -4 54 -26 18 -18 29 -27 25 -20
-3 6 1 18 10 27 8 9 12 20 9 26 -3 6 1 13 9 16 9 3 14 9 11 13 -2 4 2 8 10 8
8 0 12 -5 8 -10 -3 -5 3 -7 13 -5 11 2 19 8 19 15 0 6 4 15 9 20 5 5 6 3 2 -4
-4 -8 -1 -13 9 -13 12 0 14 6 9 26 -5 19 -4 25 5 20 6 -4 8 -12 5 -18 -4 -6
-1 -8 7 -6 8 3 13 11 11 17 -1 6 5 14 13 17 8 4 15 12 15 19 0 8 5 26 11 42 6
15 9 28 7 28 -2 0 14 23 35 52 46 63 49 90 8 64 -8 -5 -11 -16 -7 -27 4 -11
-1 -24 -13 -35 -17 -16 -20 -16 -25 -2 -4 9 1 24 11 35 16 18 16 18 0 12 -19
-7 -25 20 -7 31 6 3 10 1 10 -4 0 -6 5 -11 10 -11 6 0 10 10 10 21 0 16 -5 20
-19 16 -28 -7 -20 22 14 49 16 13 33 20 38 17 6 -3 7 -1 3 6 -8 12 20 28 31
17 9 -8 -38 -57 -48 -50 -5 3 -9 1 -9 -5 0 -5 -8 -12 -17 -14 -10 -2 -7 -2 7
0 14 2 31 4 39 5 8 1 21 14 30 30 17 30 48 40 37 12 -3 -9 -6 -20 -6 -25 0 -6
-4 -7 -10 -4 -5 3 -10 2 -10 -3 0 -6 7 -13 16 -16 8 -3 12 -2 9 3 -3 5 -1 12
4 15 5 3 11 0 14 -8 3 -7 17 -16 32 -18 20 -4 33 1 52 21 14 14 22 20 18 13
-6 -11 -3 -12 14 -3 11 7 21 16 21 22 0 6 9 24 21 40 11 16 15 29 9 29 -18 0
8 38 31 45 17 6 19 9 8 16 -11 6 -9 13 9 32 12 13 19 27 15 30 -3 4 -1 7 6 7
7 0 21 10 30 22 14 16 30 21 69 22 28 1 49 -1 48 -4 -7 -11 32 -41 39 -31 4 8
12 8 25 1 13 -7 21 -7 26 2 4 7 3 8 -4 4 -7 -4 -12 -3 -12 1 0 5 16 9 35 10
31 1 33 -1 25 -17 -6 -12 -6 -27 -1 -42 l10 -23 -2 25 c0 14 7 37 17 53 20 29
29 35 20 13 -3 -8 0 -17 7 -22 7 -4 10 -3 6 3 -4 6 -1 16 7 22 11 9 15 9 18
-1 4 -10 9 -10 23 2 11 9 16 10 11 3 -4 -8 -1 -13 8 -13 19 0 21 -16 4 -23 -8
-3 -5 -6 5 -6 10 -1 25 6 34 14 8 9 18 13 21 10 4 -3 2 -9 -3 -13 -6 -4 -19
-18 -30 -31 -19 -23 -17 -23 18 4 21 15 41 25 44 21 4 -4 13 4 20 16 7 13 12
17 13 11 0 -7 5 -13 11 -13 5 0 7 5 4 10 -3 6 -3 15 1 21 4 8 9 7 15 -2 6 -10
9 -11 9 -1z m1787 -659 c-9 -32 2 -51 26 -43 15 5 19 3 14 -9 -3 -8 -3 -18 0
-21 12 -12 12 -57 0 -50 -7 3 -2 -3 9 -13 61 -52 85 -192 59 -348 -3 -16 -6
-42 -7 -57 0 -15 -4 -25 -9 -23 -4 3 -9 0 -11 -6 -2 -7 -29 3 -71 27 -59 33
-65 40 -52 53 12 14 11 24 -1 76 -8 33 -17 68 -19 78 -3 15 6 22 28 18 5 -1 6
3 2 9 -3 5 -13 10 -21 10 -8 0 -14 5 -14 11 0 5 4 8 9 4 5 -3 12 -1 16 5 3 5
2 10 -3 10 -5 0 -12 9 -15 21 -3 13 -1 19 6 16 6 -2 17 7 24 21 19 37 16 49
-7 24 -26 -28 -30 -28 -30 1 0 18 2 19 10 7 8 -12 10 -9 10 12 0 17 -5 26 -12
24 -7 -1 -10 -1 -5 1 4 3 7 13 7 23 0 10 5 22 10 25 6 3 10 20 10 36 0 17 4
28 10 24 6 -3 7 1 4 9 -8 20 2 46 17 46 7 0 9 -9 6 -21z m6103 -10 c79 -17
140 -82 140 -149 0 -17 -6 -20 -40 -20 -30 0 -42 5 -46 18 -20 62 -56 87 -129
87 -89 0 -142 -52 -113 -112 17 -35 46 -49 132 -63 91 -14 161 -45 188 -83 54
-76 23 -191 -64 -235 -64 -33 -191 -35 -259 -5 -48 21 -91 69 -104 113 -3 14
-9 33 -11 43 -5 15 2 17 45 17 48 0 51 -2 51 -25 0 -40 48 -84 102 -94 124
-22 216 50 162 127 -21 31 -47 42 -140 63 -129 28 -175 59 -195 131 -35 132
104 225 281 187z m-895 -196 c38 -109 75 -216 85 -237 l16 -39 84 237 84 236
43 0 c24 0 43 -4 43 -9 0 -5 -26 -81 -59 -168 -32 -87 -78 -211 -101 -276
l-43 -118 -55 3 -54 3 -99 270 c-55 149 -99 276 -99 283 0 8 15 12 44 12 l43
0 68 -197z m510 -93 c0 -268 -1 -285 -18 -288 -10 -2 -29 -1 -43 2 l-24 6 0
286 0 285 43 -3 42 -3 0 -285z m707 78 c3 -186 5 -216 21 -240 54 -78 199 -76
241 5 13 26 17 70 19 237 l2 205 45 0 45 0 -1 -210 c0 -197 -2 -214 -22 -257
-29 -59 -82 -96 -156 -108 -101 -16 -194 12 -240 72 -39 53 -46 100 -46 311
l0 197 44 0 45 0 3 -212z m840 -71 c61 -153 108 -280 106 -283 -3 -2 -22 -5
-43 -7 l-38 -2 -27 65 -26 65 -57 7 c-31 4 -91 4 -134 0 l-77 -7 -25 -62 -24
-63 -44 0 c-23 0 -43 2 -43 4 0 4 194 508 210 544 9 20 16 23 61 20 l51 -3
110 -278z m268 33 l0 -250 140 0 140 0 0 -41 0 -42 -37 7 c-21 3 -104 6 -185
6 l-148 0 0 285 0 285 45 0 45 0 0 -250z m-9253 80 c419 -69 781 -134 762
-138 -17 -3 -1090 176 -1098 183 -9 10 35 4 336 -45z m330 -145 c-4 -8 -1 -17
5 -21 7 -4 8 -3 4 4 -10 17 10 15 52 -5 48 -22 49 -22 32 -34 -13 -8 -13 -10
0 -19 13 -9 13 -10 0 -10 -13 0 -13 -1 0 -10 8 -5 12 -10 8 -10 -4 0 -3 -12 3
-27 7 -19 7 -28 -3 -34 -9 -6 -5 -11 12 -17 17 -7 -17 -9 -112 -8 -76 0 -138
2 -138 4 0 2 13 8 29 13 23 8 28 15 25 37 -3 32 36 121 54 122 6 0 11 3 11 8
-3 15 1 22 12 22 6 0 9 -7 6 -15z m-2274 -77 c15 -7 27 -18 27 -24 0 -7 17
-24 38 -40 20 -15 41 -34 45 -41 4 -7 16 -13 26 -13 10 0 26 -11 35 -25 35
-53 -15 -107 -59 -65 -12 11 -25 17 -28 13 -4 -3 -7 1 -7 10 0 10 -6 17 -13
17 -7 0 -26 14 -42 30 -16 17 -36 29 -45 28 -9 -2 -35 6 -58 16 -35 16 -49 17
-77 9 -25 -8 -37 -8 -42 -1 -3 7 -1 8 5 4 8 -5 12 0 12 13 0 29 58 74 87 66
13 -3 23 -1 23 5 0 14 40 13 73 -2z m445 -24 c10 6 36 -27 37 -46 0 -4 9 -14
20 -23 11 -9 14 -14 8 -10 -7 3 -13 1 -13 -4 0 -6 4 -11 10 -11 5 0 7 -7 4
-15 -4 -8 -2 -21 4 -28 5 -6 9 -19 9 -27 1 -8 4 -24 8 -35 5 -14 4 -16 -3 -7
-7 11 -10 9 -15 -7 -3 -12 -2 -19 1 -17 4 2 13 -2 20 -10 12 -13 8 -18 -10
-16 -3 1 -9 -6 -12 -14 -5 -12 -2 -15 10 -10 12 5 15 2 10 -10 -5 -13 -1 -14
26 -9 30 7 31 6 15 -9 -19 -19 -22 -36 -7 -36 6 0 10 6 10 13 0 9 3 8 9 -2 5
-7 14 -10 20 -7 6 4 11 2 11 -4 0 -6 -10 -15 -22 -20 -13 -5 -18 -9 -11 -9 7
-1 10 -8 6 -18 -5 -13 -2 -15 12 -10 15 6 16 5 6 -7 -7 -9 -8 -17 -2 -20 5 -3
12 0 14 6 3 7 6 3 6 -8 1 -12 -6 -24 -14 -28 -8 -3 -15 -11 -14 -18 0 -10 2
-10 6 0 9 23 22 12 21 -18 -1 -16 5 -36 12 -45 8 -10 9 -19 3 -27 -14 -18 -23
-58 -13 -58 5 0 11 6 14 13 3 6 3 -1 0 -18 -3 -16 -8 -43 -11 -60 -3 -16 -10
-36 -15 -42 -7 -9 -7 -13 -1 -13 6 0 10 -10 9 -22 -1 -16 -12 -28 -35 -39 -34
-16 -34 -17 -13 -28 18 -9 21 -9 16 2 -3 8 2 17 10 20 19 7 20 3 6 -23 -7 -12
-7 -27 0 -45 7 -18 7 -32 0 -43 -9 -14 -10 -13 -4 7 4 17 3 22 -7 16 -9 -6
-11 -2 -7 13 7 25 -3 35 -26 26 -21 -8 -20 -34 1 -50 17 -12 17 -14 -5 -44
l-24 -32 24 13 c12 6 26 17 30 23 5 6 8 7 8 1 0 -6 -13 -23 -30 -38 -24 -23
-28 -32 -20 -47 13 -25 13 -33 -2 -24 -8 5 -9 -3 -5 -29 4 -23 2 -37 -5 -37
-7 0 -6 -5 2 -15 12 -15 5 -39 -10 -30 -13 8 -6 -29 8 -40 11 -9 9 -15 -7 -34
-13 -15 -19 -34 -17 -57 1 -18 0 -35 -3 -36 -7 -4 -41 -76 -41 -87 0 -10 26
-9 36 2 4 3 11 4 16 1 5 -3 1 -13 -9 -21 -10 -8 -12 -12 -6 -8 19 9 10 -69
-12 -101 -14 -21 -19 -24 -27 -13 -7 10 -8 9 -4 -6 6 -23 -23 -68 -31 -47 -3
6 -9 12 -14 12 -4 0 -6 -6 -3 -13 3 -8 -3 -20 -12 -28 -15 -12 -16 -11 -9 20
5 23 4 31 -4 27 -10 -7 -15 19 -12 64 0 10 -1 11 -5 2 -3 -6 -10 -9 -16 -6 -7
5 -9 -2 -4 -22 4 -15 10 -73 12 -129 3 -55 9 -101 15 -103 5 -2 9 -8 9 -13 0
-6 -6 -7 -12 -3 -10 6 -10 5 -1 -7 21 -26 44 -104 48 -163 3 -49 0 -65 -18
-90 -11 -16 -16 -26 -9 -22 7 4 12 2 12 -4 0 -7 -6 -10 -12 -8 -18 6 -30 97
-26 195 3 69 1 80 -12 73 -8 -4 -46 -13 -85 -20 -94 -17 -218 -56 -287 -91
-76 -38 -160 -122 -181 -179 -9 -25 -27 -75 -40 -111 -13 -37 -32 -100 -42
-140 -9 -41 -30 -117 -45 -169 -52 -173 -66 -260 -53 -336 7 -41 23 -85 42
-115 l30 -48 -36 -12 c-20 -6 -62 -35 -94 -63 -117 -105 -147 -125 -195 -137
-44 -11 -135 -44 -344 -126 -36 -14 -85 -36 -110 -48 -25 -13 -67 -30 -95 -38
-27 -8 -99 -36 -160 -62 -60 -26 -137 -55 -170 -65 -33 -10 -107 -36 -165 -58
-130 -49 -151 -56 -149 -45 3 19 -2 34 -10 28 -5 -3 -12 4 -16 15 -3 11 -13
20 -21 20 -8 0 -13 4 -9 10 3 5 12 7 20 3 30 -11 14 5 -21 22 -26 12 -33 20
-25 28 6 6 11 19 11 28 0 10 6 19 13 22 6 3 2 4 -10 4 -12 -1 -19 -5 -16 -11
3 -5 1 -6 -5 -2 -19 11 -14 46 6 46 14 0 15 2 2 9 -8 6 -17 8 -21 5 -4 -2 -10
3 -13 12 -9 23 -7 36 4 29 6 -3 7 1 4 9 -3 9 -10 13 -15 10 -15 -9 -5 20 11
33 12 10 10 11 -12 7 -26 -4 -27 -3 -18 20 6 17 6 27 -2 32 -7 4 -8 3 -4 -4
11 -18 0 -14 -15 5 -10 11 -10 14 -1 9 7 -4 12 -2 12 8 0 8 -8 20 -17 25 -16
9 -15 10 7 11 20 0 22 2 10 11 -11 8 -12 12 -2 16 6 2 9 9 6 15 -4 6 0 14 7
19 11 7 10 9 -3 9 -10 0 -18 -7 -18 -15 0 -8 -8 -15 -17 -15 -15 0 -15 2 -4 9
12 8 12 12 2 24 -9 12 -9 17 0 23 7 4 9 3 6 -3 -3 -5 1 -10 10 -10 12 0 11 5
-7 19 -12 10 -17 18 -11 18 6 0 11 7 11 16 0 20 -25 45 -36 36 -5 -4 -2 1 5
11 11 14 11 20 1 33 -8 8 -9 14 -4 12 5 -2 9 2 9 7 0 6 -3 9 -7 8 -3 -1 -13
13 -22 31 -12 25 -13 41 -7 58 6 12 10 17 10 11 1 -16 31 -17 31 -2 0 5 -4 7
-10 4 -5 -3 -10 -1 -10 6 0 6 8 9 18 7 13 -4 18 1 20 18 1 16 -3 22 -12 18
-18 -7 -31 15 -17 29 14 14 14 37 0 37 -5 0 -7 -6 -3 -12 4 -7 3 -9 -2 -5 -18
17 -10 66 13 78 28 15 30 29 3 22 -11 -3 -17 -9 -14 -14 3 -5 -2 -6 -11 -3
-14 6 -13 9 5 21 20 14 20 16 4 28 -16 11 -16 13 2 23 18 11 17 11 -6 12 -19
0 -22 2 -10 9 8 6 18 7 22 5 4 -3 8 2 8 11 0 10 5 13 13 9 6 -4 9 -4 5 1 -4 4
-3 16 2 26 7 12 6 20 -2 25 -6 4 -8 3 -4 -4 3 -6 2 -13 -4 -17 -14 -9 -12 28
3 44 10 11 10 13 0 7 -7 -4 -13 -2 -13 3 0 6 5 11 12 11 9 0 9 3 0 12 -17 17
-15 29 3 22 8 -4 15 -1 15 5 0 6 -5 11 -11 11 -5 0 -7 5 -4 10 4 6 12 7 18 4
7 -4 5 0 -3 9 -16 17 -90 24 -254 26 -129 2 -78 14 76 19 79 2 145 8 146 13 2
5 9 6 15 3 7 -4 4 1 -5 11 -16 17 -16 19 0 32 15 11 15 14 2 23 -8 5 -10 10
-4 10 5 0 15 -5 21 -11 7 -7 10 -3 7 16 -2 21 1 25 13 21 13 -5 14 -4 4 8 -7
8 -20 13 -29 10 -9 -2 0 4 20 14 30 15 35 21 25 32 -9 10 -9 11 1 6 6 -4 12
-3 12 1 0 5 -6 15 -12 22 -11 10 -9 11 7 6 l20 -7 -20 17 c-19 16 -19 16 10
10 17 -4 26 -3 20 2 -14 11 -18 43 -5 43 5 0 10 -5 10 -12 0 -6 3 -8 6 -5 4 4
2 12 -4 20 -13 15 -12 57 1 57 4 0 6 4 3 8 -5 8 28 42 36 39 2 -1 -4 5 -14 14
-21 20 -11 34 10 16 13 -10 14 -9 8 1 -4 7 -1 15 8 18 9 3 16 11 16 16 0 6 -6
6 -14 -1 -11 -9 -16 -9 -22 0 -4 7 -3 9 4 5 6 -3 17 3 25 14 7 11 16 17 20 14
3 -3 3 3 0 15 -3 13 -1 21 6 21 7 0 9 -4 6 -10 -3 -5 -1 -10 4 -10 6 0 10 8 9
18 -3 38 2 63 12 57 7 -4 9 3 6 19 -5 26 9 37 16 14 3 -7 7 -6 11 5 4 11 1 17
-8 17 -8 0 -15 4 -15 9 0 4 11 6 24 4 13 -3 27 0 30 6 5 7 1 9 -8 5 -11 -4
-16 0 -16 11 0 11 5 15 15 11 12 -4 13 -2 6 13 -7 13 -6 18 4 18 8 0 11 -5 8
-11 -3 -6 0 -5 8 2 11 10 11 14 1 21 -15 9 -5 41 12 41 7 0 18 -6 25 -12 8 -7
5 0 -5 16 l-18 29 22 -12 c20 -11 21 -10 12 13 -10 27 9 43 29 23 8 -8 11 -3
11 18 0 23 3 27 10 15 6 -9 10 -10 10 -3 0 6 -5 15 -10 18 -6 4 -7 11 -4 17 4
6 10 6 17 -1 14 -14 27 -14 27 0 0 5 -4 7 -10 4 -18 -11 -11 1 12 21 12 10 18
13 13 5 -5 -9 -3 -12 6 -9 8 3 14 18 14 36 0 18 2 32 5 32 6 0 7 29 9 333 1
136 6 237 11 237 6 0 11 -105 12 -247 3 -209 5 -247 18 -250 13 -4 13 -3 0 6
-8 6 -11 11 -6 11 6 0 21 -10 34 -22 14 -13 21 -16 16 -8 -12 22 -16 52 -4 45
5 -3 12 6 16 20 7 28 14 31 34 13 12 -11 12 -10 2 3 -10 13 -8 19 6 33 10 9
22 13 26 9 4 -4 4 0 0 10 -4 11 -1 17 7 17 11 0 11 3 -1 10 -12 8 -11 10 6 10
11 0 26 -6 34 -12 12 -11 12 -10 3 2 -8 11 -7 18 3 28 8 7 14 9 14 5 0 -4 6 3
13 16 6 13 16 23 20 22 10 -2 37 25 37 37 0 5 8 16 18 23 14 11 15 11 5 -1 -7
-8 -13 -18 -13 -23 0 -4 11 4 24 20 22 26 23 30 10 58 -14 27 -14 28 1 11 8
-11 15 -16 15 -10 0 5 5 2 10 -6 8 -13 10 -13 10 1 0 25 27 44 43 31 10 -8 13
-6 14 9 1 12 -3 17 -10 13 -7 -4 -1 5 13 18 16 16 33 24 47 22 12 -2 24 0 28
6 3 6 -1 7 -9 4 -9 -3 -16 -1 -16 5 0 6 5 11 11 11 5 0 8 4 4 9 -3 6 3 8 14 6
14 -3 18 1 14 11 -8 22 16 47 33 33 16 -13 34 -4 34 17 0 8 4 14 9 14 4 0 8 8
7 18 0 10 11 33 27 51 24 29 39 37 70 40 4 1 7 7 6 14 -3 23 3 52 8 40 7 -19
31 -16 29 3 0 9 7 18 17 19 9 2 17 -1 17 -6 0 -6 4 -8 10 -4 5 3 7 12 4 20 -4
8 -11 12 -17 8 -6 -3 -7 -1 -3 6 4 6 12 9 17 6 5 -4 9 -1 9 5 0 6 5 8 11 4 7
-4 8 -9 1 -13 -6 -4 -4 -12 6 -21 14 -13 15 -12 10 2 -7 16 9 38 27 38 5 0 3
-5 -5 -10 -13 -8 -12 -10 3 -10 9 0 17 3 17 8 0 4 10 12 23 17 12 6 21 16 20
23 -2 7 6 12 16 12 11 0 23 5 26 10 11 17 -3 40 -20 34 -8 -3 -12 -10 -9 -15
3 -5 10 -6 16 -3 7 4 8 2 4 -4 -8 -14 -33 -5 -40 14 -3 8 1 14 9 14 8 0 15 5
15 10 0 8 6 8 17 1 13 -7 23 -5 35 6 15 14 20 14 35 2 9 -8 14 -9 10 -3 -11
18 19 37 40 26 23 -12 52 -4 32 9 -10 6 -11 9 -1 9 6 0 12 8 12 19 0 10 8 25
18 32 15 13 16 12 3 -4 -12 -15 -12 -17 1 -12 19 8 60 84 52 97 -4 5 3 5 15
-2 17 -9 20 -14 11 -25 -9 -10 -7 -13 7 -10 10 2 23 4 28 4 6 1 3 6 -5 11 -10
6 -11 10 -2 10 7 0 12 15 13 38 1 20 4 48 8 62 l7 25 8 -30 c3 -16 9 -48 12
-70 2 -22 6 -55 9 -73 3 -24 -2 -38 -17 -52 -12 -11 -16 -20 -10 -20 7 0 12
-10 12 -23 0 -12 20 -63 45 -112 24 -50 52 -124 61 -165 28 -124 118 -330 145
-330 6 0 8 4 5 9 -6 10 -23 53 -25 63 -1 5 -10 24 -21 43 -19 33 -29 84 -12
59 15 -23 52 -36 68 -23 19 16 18 65 -3 81 -54 43 -94 93 -107 136 -25 82 -8
312 23 312 4 0 5 -24 1 -52 -7 -48 -7 -70 -2 -131 1 -10 6 -16 10 -13 5 3 21
-24 38 -60 16 -35 32 -64 37 -64 4 0 7 -9 7 -20 0 -13 7 -20 20 -20 11 0 20 6
20 13 0 7 14 18 31 24 29 11 32 9 70 -29 21 -22 39 -48 39 -57 -1 -14 -2 -14
-14 1 -7 10 -15 16 -17 13 -3 -2 -31 2 -62 9 -39 9 -59 10 -64 3 -4 -6 -1 -7
7 -2 10 6 12 4 7 -8 -5 -14 0 -17 23 -17 21 0 36 -9 56 -35 15 -19 42 -42 60
-51 19 -9 34 -20 34 -24 0 -21 -91 -30 -114 -11 -7 6 -17 6 -26 1 -8 -6 -12
-10 -9 -10 4 0 3 -16 -1 -35 -5 -21 -4 -38 2 -41 5 -3 7 -12 4 -20 -3 -8 -1
-14 4 -14 6 0 10 -5 10 -11 0 -5 -5 -7 -11 -3 -8 5 -8 1 0 -14 6 -12 16 -24
23 -28 7 -4 8 -3 4 4 -4 7 -1 12 7 12 8 0 22 9 32 20 22 24 29 25 55 3 15 -14
17 -20 7 -31 -7 -8 -11 -18 -10 -21 0 -3 -3 -5 -7 -4 -4 1 -11 -9 -14 -23 -5
-17 -12 -24 -21 -20 -8 3 -19 -2 -24 -11 -8 -15 -12 -15 -38 -3 -15 7 -34 12
-40 11 -7 -1 -13 3 -13 9 0 5 -5 10 -10 10 -14 0 23 -70 52 -97 35 -33 91 -53
148 -53 57 0 57 0 40 91 -6 30 -13 126 -16 214 -3 88 -9 198 -13 245 -8 90 -6
239 3 280 3 14 8 42 11 63 6 43 12 75 25 127 4 19 14 67 20 105 9 49 21 81 40
106 22 27 26 39 17 48 -8 8 -7 11 6 11 9 0 17 6 17 13 0 9 3 8 9 -2 5 -7 14
-11 19 -7z m3534 -31 c6 9 10 9 17 -1 4 -8 11 -13 15 -13 21 3 28 -1 23 -13
-4 -9 2 -13 20 -13 13 0 30 -6 36 -12 9 -9 7 -11 -8 -5 -21 8 -21 6 8 -16 10
-7 17 -9 16 -4 -4 21 2 26 16 14 8 -7 12 -17 8 -24 -4 -6 2 -4 12 4 17 13 18
13 13 -1 -3 -9 -2 -22 3 -30 5 -8 9 -9 9 -2 0 7 9 9 23 6 32 -8 47 -23 47 -47
1 -20 1 -20 14 -3 13 16 14 16 20 1 4 -10 1 -21 -6 -26 -18 -11 -5 -10 26 2
17 6 26 6 26 0 0 -6 -4 -10 -10 -10 -5 0 -7 -7 -3 -16 3 -8 12 -13 19 -10 8 3
14 -1 14 -9 0 -8 9 -15 20 -15 11 0 20 -2 20 -4 0 -2 3 -13 6 -23 6 -16 5 -16
-11 2 -17 19 -17 19 -2 -5 11 -20 21 -24 47 -22 20 2 30 0 26 -6 -3 -6 -2 -13
4 -17 6 -4 7 -11 4 -17 -5 -7 0 -9 15 -5 17 4 20 3 11 -8 -8 -10 -5 -14 15
-19 14 -4 25 -13 25 -22 0 -9 6 -14 13 -11 14 5 47 -30 47 -51 0 -9 6 -12 16
-8 10 4 13 2 8 -6 -5 -7 1 -9 20 -6 21 4 24 3 15 -8 -9 -11 -8 -14 0 -14 7 0
10 -4 7 -9 -3 -4 6 -13 20 -20 14 -6 23 -15 19 -20 -8 -15 9 -21 25 -9 12 8
11 9 -4 4 -16 -6 -17 -4 -6 9 15 18 32 2 23 -22 -3 -8 3 -13 17 -13 11 0 18
-4 15 -10 -3 -5 -1 -10 4 -10 6 0 10 -6 8 -12 -1 -7 4 -12 11 -10 8 1 11 -2 7
-8 -3 -5 -2 -10 4 -10 6 0 8 -8 4 -17 -3 -10 -3 -15 2 -11 4 4 15 2 24 -4 13
-10 14 -10 4 2 -30 33 -10 28 22 -6 21 -21 33 -44 30 -52 -4 -11 2 -13 24 -10
27 4 28 2 20 -19 -6 -18 -5 -23 6 -23 8 0 15 -5 15 -11 0 -5 5 -7 12 -3 7 4 8
3 4 -4 -4 -6 10 -27 31 -47 27 -25 39 -31 45 -22 5 8 8 6 8 -8 1 -26 26 -59
39 -50 6 3 9 0 5 -8 -3 -8 2 -17 10 -20 9 -4 13 -14 9 -29 -4 -18 -3 -20 6 -8
8 11 11 12 11 2 0 -7 7 -20 15 -28 8 -8 11 -22 8 -31 -4 -11 -3 -14 5 -9 7 4
12 1 12 -9 0 -9 5 -13 10 -10 6 4 10 96 10 243 0 145 4 232 9 226 5 -5 11
-114 12 -242 3 -253 7 -310 20 -277 7 19 8 19 8 -2 1 -13 6 -23 12 -23 5 0 7
5 3 12 -5 7 -3 8 6 3 10 -6 10 -11 -4 -20 -14 -11 -14 -14 -2 -25 9 -6 19 -9
24 -6 5 3 15 -13 21 -36 10 -31 15 -38 22 -27 7 11 9 11 9 1 0 -7 3 -11 8 -8
4 2 8 -14 9 -36 2 -42 21 -67 35 -45 5 8 8 4 8 -10 0 -13 5 -23 10 -23 6 0 10
-12 10 -26 0 -16 4 -23 12 -18 7 4 8 3 4 -4 -9 -15 12 -92 25 -92 6 0 7 5 3
12 -4 7 -3 8 4 4 7 -4 12 -14 12 -22 0 -8 5 -14 10 -14 6 0 10 -9 10 -19 0
-36 11 -53 26 -40 11 9 14 7 14 -8 0 -10 5 -24 12 -31 9 -9 9 -15 1 -23 -9 -9
-8 -15 2 -25 16 -17 26 -18 23 -3 -2 6 5 13 15 14 14 3 16 1 7 -10 -19 -22
-20 -63 -2 -61 9 2 19 11 22 22 6 15 9 12 15 -16 9 -42 23 -62 38 -53 5 3 7 2
4 -3 -3 -6 -2 -16 3 -24 5 -9 5 -20 -2 -28 -9 -10 -6 -14 11 -19 17 -4 19 -8
10 -19 -9 -11 -8 -14 5 -14 10 0 16 -9 16 -24 0 -13 10 -31 23 -40 12 -9 17
-14 10 -11 -7 3 -11 -2 -10 -14 1 -14 5 -17 12 -11 8 7 12 5 12 -5 0 -8 -6
-15 -14 -15 -7 0 -13 -5 -13 -11 0 -6 9 -8 20 -4 17 5 20 2 21 -22 1 -15 1
-32 0 -36 -1 -5 3 -6 8 -2 13 8 27 -22 30 -64 1 -19 7 -41 14 -50 10 -12 9
-13 -2 -6 -11 6 -13 4 -8 -7 3 -9 0 -22 -6 -29 -7 -7 -2 -5 10 4 17 15 23 16
29 5 4 -7 4 -10 -1 -6 -9 9 -36 -23 -29 -34 3 -5 11 -8 17 -8 7 0 6 4 -3 10
-16 10 -10 13 12 5 8 -3 12 -21 12 -49 -1 -24 1 -48 5 -54 4 -6 46 -12 101
-13 119 -2 165 -17 63 -20 -40 -1 -77 -3 -83 -4 -5 -1 -23 -3 -39 -4 -27 -1
-29 -4 -26 -33 3 -17 10 -35 17 -40 10 -6 10 -8 0 -8 -7 0 -10 -5 -7 -10 4 -6
11 -8 16 -5 5 3 6 0 3 -8 -3 -8 -1 -18 4 -21 5 -3 7 -17 5 -31 -3 -13 -10 -22
-15 -19 -6 4 -6 -2 1 -14 6 -11 18 -23 27 -26 13 -5 14 -10 6 -18 -8 -8 -7
-15 6 -24 15 -12 14 -13 -7 -9 -19 4 -22 2 -13 -7 16 -16 16 -78 0 -78 -10 0
-10 -2 -2 -8 7 -4 13 -20 15 -37 2 -16 7 -36 12 -42 6 -8 6 -18 0 -25 -12 -15
-13 -49 -2 -43 4 3 9 -8 11 -23 3 -15 9 -36 13 -46 6 -13 5 -17 -3 -12 -7 4
-10 -1 -9 -13 0 -11 5 -17 9 -15 9 6 12 -10 8 -41 -4 -34 -5 -40 -13 -52 -4
-6 -3 -14 3 -18 5 -3 10 -12 10 -18 0 -7 -4 -6 -10 3 -6 9 -10 10 -10 3 0 -6
7 -18 15 -27 8 -8 15 -18 15 -21 0 -4 -7 -5 -15 -1 -8 3 -15 1 -15 -4 0 -6 7
-10 16 -10 8 0 12 -5 8 -11 -3 -6 0 -15 7 -20 11 -8 9 -14 -11 -31 l-25 -21
25 8 25 8 -20 -23 c-11 -13 -14 -20 -7 -16 15 9 15 5 2 -28 -6 -16 -6 -26 0
-26 6 0 6 -10 0 -26 -13 -33 -13 -37 2 -28 7 5 8 3 3 -6 -4 -7 -2 -16 6 -21
11 -8 9 -13 -10 -29 -17 -15 -19 -20 -8 -20 9 0 19 -5 23 -12 5 -7 3 -8 -6 -3
-10 6 -12 4 -6 -10 5 -15 4 -16 -8 -6 -12 10 -15 9 -13 -8 0 -11 4 -18 8 -15
5 2 6 -8 5 -23 -2 -16 -5 -28 -6 -28 -10 0 -8 -60 2 -66 10 -7 10 -9 1 -9 -7
0 -13 -7 -13 -15 0 -8 -5 -15 -11 -15 -5 0 -8 -4 -4 -10 3 -5 13 -6 21 -3 14
5 14 3 2 -18 -7 -13 -15 -26 -18 -29 -3 -3 -5 -18 -5 -35 0 -16 -6 -39 -15
-49 -14 -18 -14 -18 10 -6 22 12 23 11 13 -1 -6 -8 -10 -24 -9 -34 2 -11 -1
-26 -7 -32 -6 -9 -6 -13 1 -13 5 0 12 -7 15 -14 4 -10 1 -13 -9 -9 -10 4 -13
-1 -11 -18 2 -12 -2 -34 -10 -48 -16 -32 -17 -44 -2 -35 8 4 8 0 0 -15 -7 -11
-9 -21 -5 -21 3 0 1 -6 -5 -14 -10 -11 -10 -20 -1 -36 6 -12 9 -24 6 -27 -3
-3 -8 2 -12 11 -3 9 -10 13 -15 10 -5 -3 -2 -12 6 -21 14 -14 14 -17 -1 -34
-14 -16 -20 -17 -33 -6 -14 10 -14 10 -3 -4 10 -13 9 -19 -4 -30 -33 -27 -84
-20 -163 23 -225 120 -410 210 -483 233 -46 15 -119 40 -163 55 -93 33 -227
71 -340 96 -81 17 -151 44 -195 74 -42 28 -179 78 -290 106 -58 15 -145 46
-195 69 -49 23 -94 44 -100 46 -5 2 -47 23 -93 47 l-82 42 17 26 c10 16 17 47
17 79 1 45 -4 60 -32 96 -68 91 -113 164 -126 209 -7 25 -52 123 -100 217 -47
94 -86 174 -86 177 0 23 -144 307 -187 369 l-54 78 37 56 c34 51 153 284 183
358 8 19 27 37 54 50 50 24 53 30 150 275 56 142 90 211 146 299 115 179 201
386 201 486 0 81 -37 133 -98 138 -12 0 -22 7 -22 14 0 14 61 43 91 43 10 0
23 10 30 21 8 15 8 19 0 15 -7 -5 -11 2 -11 18 0 13 6 26 13 29 23 9 -46 27
-79 21 -31 -6 -34 -4 -34 17 0 13 -7 53 -14 89 -13 60 -12 69 5 110 10 25 21
58 23 74 3 16 10 32 16 36 7 4 11 10 11 14 -3 22 1 27 16 22 10 -4 14 -4 10 0
-4 4 -2 13 4 20 8 10 15 10 37 -2 20 -10 28 -11 34 -1z m-3057 -97 c17 -2 37
-5 45 -5 9 -1 16 -11 17 -23 1 -11 6 -24 11 -27 5 -3 15 -17 22 -31 12 -23 44
-53 81 -75 38 -23 125 -69 134 -71 6 -1 33 -11 60 -22 28 -11 53 -20 58 -20
34 -4 77 -16 72 -21 -10 -9 -29 -8 -36 3 -4 5 -12 -2 -19 -14 -11 -20 -10 -22
4 -17 9 4 26 2 38 -3 21 -8 20 -9 -9 -9 -18 -1 -33 -5 -33 -10 0 -5 9 -7 19
-4 11 3 28 0 38 -6 16 -10 14 -11 -12 -10 -58 2 -72 -2 -40 -12 45 -14 158
-18 172 -7 7 6 19 8 28 5 8 -4 18 1 23 9 5 8 17 17 28 18 10 2 18 9 17 14 -2
6 4 9 12 6 8 -4 17 1 21 10 3 9 9 14 14 11 4 -2 13 6 20 19 7 14 19 22 29 19
9 -2 33 12 55 34 22 21 36 31 31 23 -6 -12 -5 -13 6 -2 18 17 32 15 25 -3 -3
-8 -1 -15 5 -15 6 0 8 -9 4 -21 -5 -15 -4 -19 4 -15 17 11 34 -3 21 -19 -11
-13 -4 -45 11 -45 5 0 8 3 7 8 -1 4 2 26 6 49 7 41 30 72 43 59 3 -3 1 -6 -5
-6 -13 0 -27 -50 -36 -125 l-6 -50 31 35 32 35 -23 -40 c-68 -116 -193 -245
-277 -286 -119 -58 -427 -21 -682 80 -139 56 -219 132 -245 233 -16 66 -27
190 -15 183 3 -3 9 -40 11 -82 3 -43 12 -97 20 -120 40 -111 158 -189 379
-248 51 -13 94 -23 96 -21 2 2 -30 14 -71 27 -41 13 -72 27 -69 33 3 5 1 6 -5
2 -7 -4 -17 -4 -22 -1 -18 11 8 34 30 28 11 -3 20 -1 20 5 0 13 -28 24 -34 13
-3 -4 -21 -8 -40 -9 -18 -1 -38 -2 -42 -3 -21 -3 -28 2 -14 11 9 6 10 10 3 10
-6 0 -15 -5 -19 -11 -4 -8 -13 -4 -25 12 -10 13 -19 18 -19 12 0 -18 -20 -16
-20 2 0 8 -7 15 -15 15 -17 0 -32 10 -70 50 -18 17 -21 26 -12 32 8 5 6 8 -6
8 -11 0 -18 7 -16 18 3 32 -1 43 -13 36 -8 -5 -9 0 -6 14 4 12 2 24 -2 27 -5
3 -7 28 -5 55 1 28 -1 53 -7 56 -5 3 -1 13 9 21 13 10 15 16 6 19 -7 3 -13 10
-13 15 0 6 4 7 10 4 6 -4 7 1 3 11 -5 13 -3 16 10 11 24 -9 21 8 -5 27 -13 9
-17 14 -10 11 7 -4 12 1 13 12 0 16 1 16 9 -2 8 -17 9 -18 11 -2 3 27 4 31 14
49 13 21 57 38 70 27 6 -4 24 -10 40 -13z m1412 13 c63 -11 64 -12 58 -38 -3
-14 -12 -30 -19 -36 -14 -11 -11 -62 6 -90 13 -23 21 -86 22 -190 1 -60 5
-116 9 -122 5 -7 6 -17 2 -22 -3 -5 -1 -12 5 -16 5 -3 10 -14 10 -24 0 -9 9
-27 20 -39 24 -25 45 -109 31 -126 -11 -13 13 -51 32 -51 7 -1 11 -7 9 -14 -1
-7 7 -15 18 -18 11 -3 20 -9 20 -14 0 -4 11 -20 25 -35 54 -58 108 -204 75
-204 -8 0 -106 76 -138 107 -16 16 -29 17 -37 3 -10 -16 -55 -12 -55 5 0 9 -7
13 -17 11 -17 -3 -25 -5 -70 -23 -10 -3 -22 -5 -27 -4 -4 1 -14 -3 -20 -9 -7
-5 -15 -7 -18 -5 -3 3 -17 1 -30 -4 -18 -7 -29 -6 -37 2 -8 8 -11 8 -11 -2 0
-11 -3 -11 -15 -1 -11 9 -15 9 -15 1 0 -7 -10 -3 -22 9 -12 11 -27 20 -33 20
-6 0 -22 11 -35 25 -13 14 -30 25 -37 25 -8 0 -11 5 -8 10 4 7 -2 9 -17 6 -12
-3 -41 -8 -63 -11 -22 -4 -44 -10 -50 -15 -5 -4 -48 -11 -94 -14 -71 -5 -86
-3 -96 11 -26 35 26 110 119 172 57 37 75 56 97 101 16 30 28 62 29 71 0 9 21
38 46 65 77 81 113 132 124 177 16 61 48 123 88 165 14 15 15 23 6 46 -3 9
-10 13 -15 10 -5 -3 -9 7 -9 23 0 15 -5 35 -10 43 -18 28 47 36 147 19z m1307
-41 c-4 -6 1 -8 13 -4 23 7 50 -18 60 -55 9 -38 3 -182 -9 -196 -6 -7 -7 -13
-2 -13 4 0 3 -5 -3 -11 -8 -8 -21 -8 -46 0 -33 11 -44 28 -52 81 -1 8 -6 23
-10 33 -4 10 -3 17 4 17 6 0 10 13 9 29 -1 16 -6 29 -11 28 -5 -1 -11 8 -13
20 -4 24 31 57 50 46 6 -3 7 -2 3 3 -5 5 -16 9 -24 9 -9 0 -18 6 -21 14 -3 10
0 12 12 8 11 -4 16 -1 16 10 0 12 3 13 15 3 8 -7 12 -17 9 -22z m4824 -570
l-3 -283 -42 -3 -43 -3 0 285 0 286 45 0 45 0 -2 -282z m457 255 c100 -53 139
-126 140 -258 0 -106 -23 -164 -86 -218 -56 -49 -97 -59 -256 -64 l-143 -5 0
287 0 287 153 -4 c132 -3 157 -6 192 -25z m633 -10 l-3 -38 -157 -3 -158 -3 0
-79 0 -80 145 0 145 0 0 -40 0 -40 -145 0 -145 0 0 -85 0 -85 160 0 160 0 0
-40 0 -40 -202 2 -203 3 -3 283 -2 282 205 0 206 0 -3 -37z m322 -178 l135
-215 3 215 2 215 45 0 45 0 -2 -282 -3 -283 -49 0 -50 0 -137 213 c-75 117
-139 215 -141 217 -3 3 -4 -93 -4 -213 l1 -217 -42 -3 -43 -3 0 285 0 286 53
0 52 -1 135 -214z m760 175 l0 -40 -95 0 -95 0 0 -245 0 -245 -45 0 -45 0 0
245 0 245 -95 0 -95 0 0 40 0 40 235 0 235 0 0 -40z m160 -245 l0 -285 -45 0
-45 0 0 285 0 285 45 0 45 0 0 -285z m530 245 l0 -40 -92 0 -93 0 0 -207 c0
-113 -2 -224 -4 -245 l-3 -39 -42 3 -41 3 -3 243 -2 242 -90 0 -90 0 0 40 0
40 230 0 230 0 0 -40z m211 -91 l76 -131 78 131 77 131 50 0 c36 0 47 -3 42
-12 -4 -7 -51 -83 -105 -169 l-99 -156 0 -116 0 -117 -45 0 -45 0 0 120 0 121
-96 152 c-53 84 -101 158 -107 165 -7 9 3 12 44 12 l54 -1 76 -130z m-7877 39
c9 -41 12 -106 4 -102 -4 2 -6 -9 -6 -25 1 -17 -5 -37 -12 -46 -7 -8 -10 -18
-8 -21 3 -3 -2 -21 -11 -40 -9 -19 -16 -55 -16 -79 1 -25 -1 -45 -5 -45 -4 0
-6 -10 -5 -22 3 -31 -5 -49 -18 -41 -5 3 -7 1 -4 -4 9 -14 -37 -59 -74 -72
-22 -8 -29 -7 -27 2 1 7 -4 22 -11 35 -7 13 -10 30 -7 37 2 7 -2 19 -9 25 -12
10 -12 14 1 27 12 12 12 18 2 31 -11 13 -10 15 3 10 9 -4 20 2 28 14 7 11 19
17 27 14 8 -3 14 -1 14 4 0 6 -4 10 -10 10 -5 0 -7 7 -4 15 4 8 13 15 22 15 8
0 12 3 8 8 -4 4 -13 7 -19 7 -5 0 -12 6 -15 13 -2 7 2 10 12 6 10 -4 16 -1 16
7 0 11 3 11 10 -1 5 -8 10 -10 10 -5 0 16 -16 37 -26 34 -5 -1 -10 5 -12 14
-2 9 1 17 7 17 7 0 9 10 5 26 -5 18 -3 25 4 20 6 -4 8 2 5 14 -3 11 -1 20 5
20 5 0 13 7 16 16 4 10 2 13 -7 8 -9 -6 -9 -5 0 8 7 8 9 18 5 22 -4 5 0 7 8 6
29 -4 41 0 34 12 -5 8 -2 9 9 5 9 -3 16 -3 16 1 -5 30 29 30 35 0z m-2574
-227 c181 -51 265 -65 405 -66 163 0 206 16 335 128 30 27 27 22 -11 -15 -30
-29 -76 -67 -101 -83 -62 -41 -85 -57 -72 -50 7 2 15 -2 18 -11 3 -8 2 -13 -3
-10 -5 3 -14 -1 -21 -9 -12 -14 -7 -20 14 -16 5 1 4 -5 -3 -13 -7 -9 -17 -14
-21 -11 -5 3 -21 -6 -36 -20 -15 -14 -30 -23 -33 -20 -3 4 1 10 9 15 13 8 12
10 -2 10 -9 0 -18 -5 -20 -12 -4 -10 -21 -14 -66 -17 -7 -1 -11 -4 -9 -8 3 -5
-15 -6 -40 -4 -50 4 -78 -13 -53 -30 12 -8 10 -9 -6 -4 -27 7 -38 -24 -17 -44
11 -10 12 -15 3 -21 -7 -4 -1 -7 14 -7 15 0 29 4 32 8 3 5 2 9 -3 8 -23 -4
-33 3 -33 24 0 12 4 17 8 11 9 -14 45 -27 37 -14 -3 6 -1 10 4 10 14 0 14 -16
1 -41 -14 -24 -5 -24 19 0 15 15 16 22 8 32 -7 6 0 4 15 -7 31 -22 37 -38 10
-30 -12 4 -19 1 -19 -7 0 -9 7 -12 19 -9 10 2 20 -2 24 -12 5 -13 11 -10 35
16 20 20 40 31 59 32 28 1 29 2 13 15 -17 13 -17 13 0 7 10 -3 25 -6 33 -6 10
0 12 -9 8 -34 -3 -19 0 -37 6 -41 6 -3 8 -11 5 -16 -4 -5 -2 -9 3 -9 6 0 13
-16 17 -36 3 -20 13 -43 20 -51 8 -7 17 -30 21 -51 8 -43 32 -75 51 -68 10 4
11 1 4 -13 -12 -22 4 -42 28 -33 14 5 14 4 1 -13 -8 -11 -24 -28 -35 -37 -11
-10 -15 -17 -8 -18 6 0 14 6 16 13 4 9 8 8 16 -3 9 -13 12 -13 20 -1 5 7 13
11 19 7 6 -3 18 1 26 10 9 8 16 12 16 7 0 -4 4 -2 9 5 6 11 11 10 24 -3 9 -9
21 -13 27 -10 5 3 10 1 10 -6 0 -8 4 -8 15 1 12 10 15 10 15 -4 0 -9 -5 -16
-12 -16 -6 0 -9 -3 -5 -6 3 -3 15 0 26 8 12 8 18 18 14 21 -3 4 -2 7 4 7 16 0
22 -37 9 -50 -8 -8 -7 -9 7 -4 13 5 16 2 11 -10 -3 -9 -1 -16 5 -16 6 0 11
-10 11 -23 0 -27 25 -51 66 -62 44 -13 47 -12 76 7 41 28 73 23 116 -20 36
-36 37 -39 15 -36 -14 1 -43 -4 -65 -12 -53 -18 -110 -18 -156 2 -114 48 -118
48 -257 13 -44 -11 -92 -22 -107 -24 -15 -2 -32 -6 -38 -10 -5 -3 -19 -1 -31
6 -16 8 -20 8 -14 -1 6 -9 3 -9 -13 -1 -13 7 -19 17 -15 27 4 10 -2 17 -16 21
-23 6 -27 24 -11 54 9 16 7 19 -9 19 -14 0 -18 -5 -14 -20 3 -11 0 -20 -6 -20
-13 0 -9 47 7 76 9 16 8 21 -4 21 -8 0 -19 -17 -26 -39 -10 -34 -18 -43 -40
-39 -4 0 -5 -5 -2 -13 6 -17 -12 -31 -21 -16 -3 5 -18 7 -32 4 -18 -5 -24 -3
-19 5 9 15 -7 14 -22 -1 -7 -7 -12 -9 -12 -4 0 16 29 36 44 30 22 -8 20 13 -3
37 -20 21 -41 19 -41 -5 0 -7 -10 -21 -22 -32 -23 -19 -23 -19 -5 2 9 11 17
25 17 31 0 20 35 49 58 47 12 -1 20 1 17 4 -2 3 0 11 6 19 7 8 8 13 1 13 -5 0
-12 -7 -16 -15 -8 -21 -23 -19 -31 4 -7 22 -40 18 -49 -6 -3 -8 -10 -12 -15
-9 -5 4 -3 19 6 37 8 17 12 33 9 36 -3 3 -12 -9 -20 -28 -10 -24 -11 -38 -4
-47 6 -7 7 -16 3 -20 -4 -4 -10 -1 -12 6 -3 6 -9 9 -15 6 -7 -5 -9 2 -4 20 6
25 5 27 -15 21 -27 -9 -40 10 -28 42 6 16 5 23 -4 23 -8 1 -6 5 4 13 18 14 14
37 -7 37 -8 0 -14 5 -14 11 0 6 7 9 15 6 8 -4 17 -2 20 3 4 6 0 10 -8 10 -16
0 -32 29 -21 39 4 3 9 0 11 -6 7 -20 22 -15 20 7 -1 11 -4 20 -8 20 -4 0 -9 7
-13 15 -4 13 -2 14 14 5 11 -6 20 -8 20 -4 0 3 7 1 15 -6 13 -11 14 -10 9 4
-4 9 -11 15 -17 13 -13 -4 -51 32 -42 41 3 3 14 1 24 -5 11 -7 23 -8 32 -2 11
7 10 9 -5 9 -15 0 -16 3 -6 15 7 8 16 12 21 9 5 -3 6 2 3 11 -4 9 -9 13 -12
10 -3 -3 -14 2 -24 12 -17 16 -17 17 14 36 l33 21 -27 10 c-34 12 -36 23 -5
28 15 2 21 9 19 22 -3 13 1 17 11 13 17 -6 29 2 21 14 -3 5 -20 1 -37 -8 -38
-19 -77 -25 -77 -11 0 6 7 8 15 5 8 -4 17 -2 20 3 9 15 -31 21 -73 12 -25 -6
-44 -6 -50 0 -6 6 -18 8 -28 5 -14 -3 -13 -5 6 -6 18 -1 21 -4 11 -10 -8 -5
-27 -3 -47 5 -39 16 -67 19 -44 4 8 -5 10 -10 4 -10 -16 0 -35 25 -26 35 4 5
0 6 -10 2 -24 -9 -29 2 -11 29 14 22 14 24 -1 24 -9 0 -16 5 -16 10 0 6 5 10
11 10 5 0 7 5 3 12 -4 6 1 17 11 25 11 7 15 13 10 13 -5 0 -16 -6 -24 -14 -14
-13 -16 -12 -17 10 -2 19 2 24 13 20 11 -4 13 -2 9 9 -3 8 -1 15 4 15 6 0 10
-4 10 -10 0 -5 5 -10 11 -10 6 0 8 7 5 16 -6 15 -4 15 11 3 16 -12 17 -11 3 3
-8 9 -49 30 -90 47 -41 17 -86 40 -100 51 -14 11 6 5 45 -15 39 -19 117 -48
175 -64z m658 -1567 c13 8 28 -13 34 -47 4 -20 2 -27 -7 -23 -8 3 -16 -1 -19
-9 -2 -7 -16 -12 -30 -11 -14 2 -23 0 -21 -4 3 -4 -5 -16 -16 -26 -19 -17 -21
-18 -30 -1 -12 20 -29 23 -29 4 0 -7 -10 -18 -22 -26 -21 -13 -22 -13 -10 1
10 13 10 17 -2 21 -9 4 -17 -1 -21 -13 -5 -17 -9 -18 -26 -7 -10 6 -19 15 -19
20 0 4 4 6 8 3 5 -3 9 2 9 10 0 8 -5 13 -11 11 -6 -2 -20 -1 -31 4 -19 8 -19
8 3 15 12 3 22 10 22 15 0 5 10 9 23 9 17 0 19 2 7 9 -8 6 -18 7 -24 4 -5 -3
-6 -1 -3 4 4 6 18 13 32 15 13 3 22 1 19 -3 -9 -15 15 -10 35 8 24 20 51 25
51 10 0 -8 4 -7 9 2 5 7 14 10 20 7 6 -4 11 -2 11 5 0 9 4 9 15 -1 8 -6 18 -9
23 -6z m4705 -581 c-1 -84 2 -142 9 -150 13 -16 7 -483 -6 -483 -5 0 -4 -6 2
-12 12 -16 16 -442 4 -434 -5 3 -9 -1 -9 -9 0 -8 4 -12 9 -9 4 3 7 -12 7 -33
-1 -21 -3 -29 -6 -18 -3 11 -9 24 -14 30 -14 14 -11 65 4 66 9 0 9 2 0 5 -16
7 -19 609 -3 619 5 3 10 14 9 23 0 14 -2 13 -9 -3 -5 -12 -9 104 -9 280 0 165
3 292 7 283 4 -10 6 -79 5 -155z m4662 -83 c-75 -5 -83 -6 -45 -11 25 -3 -423
-6 -995 -6 -572 0 -1022 3 -1000 6 29 4 10 7 -65 11 -58 4 413 6 1045 6 633 0
1110 -2 1060 -6z m-3709 -84 c-82 -48 -201 -180 -220 -243 -4 -13 -12 -23 -17
-23 -6 0 -8 -3 -5 -8 2 -4 -2 -32 -10 -62 -12 -45 -14 -244 -14 -1196 0 -1007
-2 -1141 -15 -1141 -13 0 -15 135 -12 1156 2 1096 3 1159 21 1211 26 79 58
139 104 193 45 55 139 130 153 121 5 -3 9 0 9 6 0 6 5 8 12 4 8 -5 7 -11 -6
-18z m-6561 -111 c77 -8 190 -27 250 -41 110 -26 221 -43 391 -62 158 -18 205
-57 318 -268 38 -71 109 -192 158 -268 50 -76 118 -189 152 -250 144 -256 187
-328 264 -443 115 -172 214 -291 411 -496 94 -98 171 -183 171 -188 0 -5 -32
24 -72 64 -39 39 -63 61 -52 47 10 -13 24 -29 30 -35 37 -36 104 -136 98 -147
-3 -4 0 -17 6 -28 9 -16 8 -18 -5 -14 -8 4 -15 1 -15 -6 0 -10 -4 -9 -16 0
-12 11 -15 11 -12 -1 5 -23 -48 -23 -71 0 -23 23 -35 17 -20 -11 6 -11 7 -23
3 -26 -4 -4 -9 -1 -12 7 -3 9 -6 10 -11 2 -5 -8 -15 -6 -33 8 -19 16 -28 17
-37 8 -9 -9 -13 -7 -17 11 -4 12 -10 20 -14 17 -5 -3 -11 -1 -15 5 -3 5 -15
15 -26 21 -19 10 -20 9 -9 -10 6 -12 8 -21 5 -21 -13 0 -51 24 -77 48 -15 14
-30 23 -33 20 -7 -6 46 -62 80 -84 20 -13 23 -19 14 -30 -9 -11 -8 -18 0 -28
10 -12 7 -15 -16 -18 -22 -2 -27 -8 -25 -23 2 -11 3 -37 2 -59 -1 -30 2 -37
14 -33 8 3 20 0 26 -8 8 -10 8 -14 -2 -18 -9 -3 -4 -13 15 -32 28 -29 34 -45
16 -45 -5 0 -8 -4 -4 -9 10 -16 -41 -61 -69 -61 -17 0 -26 -5 -26 -16 0 -8 -5
-12 -11 -8 -6 3 -14 2 -18 -4 -13 -21 -65 2 -120 54 -31 30 -81 71 -111 92
-30 20 -56 40 -58 44 -7 14 -102 112 -102 104 0 -4 -12 2 -26 13 -15 12 -35
21 -45 21 -9 0 -24 6 -31 14 -27 28 -58 66 -58 72 0 4 -18 23 -40 44 -22 20
-37 40 -33 44 3 3 1 6 -5 6 -7 0 -12 7 -12 15 0 8 -6 14 -12 13 -7 -2 -13 4
-13 12 -1 28 -23 55 -47 55 -12 0 -23 5 -23 11 0 21 -31 42 -47 33 -12 -6 -17
-3 -21 12 -4 15 -11 20 -22 15 -9 -3 -13 -2 -10 3 3 5 1 12 -5 16 -5 3 -10 -1
-10 -10 0 -9 -5 -13 -10 -10 -6 4 -19 3 -28 -1 -9 -4 -26 -8 -38 -9 -16 -1
-20 4 -16 22 4 19 1 21 -24 17 -15 -3 -32 -8 -37 -11 -6 -4 -7 -1 -2 7 6 10 3
12 -13 8 -24 -7 -36 14 -19 31 8 8 8 11 -2 11 -7 0 -10 4 -7 9 5 7 -40 18 -91
23 -7 1 -10 5 -7 9 7 13 -17 25 -54 28 -22 1 -62 33 -62 50 0 28 -65 78 -115
87 -36 6 -70 28 -73 45 -3 19 24 44 47 44 9 0 15 6 13 13 -1 8 2 11 7 8 14 -9
38 3 38 19 0 8 -4 12 -8 9 -4 -2 -10 0 -14 6 -6 9 7 14 27 11 4 0 3 11 -2 25
-6 15 -6 23 -1 19 5 -3 13 -1 16 5 4 6 22 9 40 8 51 -3 50 6 0 21 -25 7 -42
17 -39 22 3 5 -7 9 -22 9 -21 0 -25 4 -21 19 3 13 0 18 -8 15 -10 -4 -30 23
-25 35 1 2 -4 7 -11 11 -7 5 -13 19 -14 32 -1 23 -55 59 -100 66 -11 2 -44 14
-74 28 -66 30 -111 32 -111 5 0 -22 -19 -40 -51 -48 -47 -11 -149 -2 -199 19
-19 7 -45 13 -57 12 -12 -1 -20 3 -17 7 3 5 0 9 -6 9 -6 0 -8 15 -4 43 6 40 5
41 -10 22 -18 -23 -22 -5 -5 28 5 12 -8 2 -30 -23 -50 -57 -65 -45 -22 18 27
38 19 32 -41 -33 -81 -85 -94 -91 -172 -73 -23 5 -50 11 -60 14 -11 2 -23 9
-27 16 -9 14 -10 13 -28 -17 -11 -17 -12 -16 -7 15 9 53 38 103 72 125 29 20
206 58 511 111 71 12 103 23 134 46 48 35 46 43 -7 29 -22 -6 -73 -11 -114
-12 -41 -1 -82 -6 -90 -10 -21 -10 -94 -19 -245 -31 -197 -15 -229 -16 -242
-6 -6 5 -22 6 -36 3 -19 -5 -28 -17 -35 -43 l-10 -37 -1 48 c-1 27 4 58 11 70
24 45 102 117 142 131 75 27 300 84 396 101 225 40 294 55 318 71 35 23 10 35
-48 23 -25 -5 -119 -12 -210 -15 -108 -4 -194 -13 -250 -26 -47 -11 -94 -21
-105 -23 -11 -2 -20 -4 -20 -5 0 -1 -15 -4 -33 -7 -21 -3 -43 2 -58 12 -28 18
-25 22 -59 -88 -26 -82 -30 -64 -6 29 22 89 30 147 19 145 -5 -1 -12 -1 -17
-1 -17 0 -40 -30 -50 -63 -35 -116 -53 -187 -57 -217 -2 -19 -10 -39 -17 -45
-8 -5 -19 -19 -26 -30 -10 -17 -11 -15 -5 15 3 19 17 62 30 95 13 33 33 101
44 151 27 116 59 167 169 269 47 44 133 128 191 187 59 58 117 109 130 112 51
11 66 11 120 4 30 -4 118 -15 195 -23z m7129 -809 c18 -8 41 -24 50 -37 35
-51 6 -162 -46 -174 -13 -3 -54 -6 -93 -7 l-70 -3 -3 -72 c-3 -70 -4 -73 -27
-73 l-25 0 0 190 0 190 90 0 c55 0 104 -6 124 -14z m2274 -173 c-3 -186 -3
-188 -25 -191 -16 -2 -23 2 -23 12 0 20 -9 20 -34 1 -11 -8 -39 -15 -63 -15
-56 0 -100 38 -114 98 -27 123 71 219 171 167 34 -18 40 -9 40 66 0 46 2 49
25 49 l25 0 -2 -187z m1592 168 c0 -13 -8 -21 -22 -23 -18 -2 -24 -11 -26 -35
-3 -30 -1 -33 22 -33 19 0 26 -5 26 -20 0 -15 -7 -20 -25 -20 -24 0 -24 0 -27
-112 l-3 -113 -25 0 -25 0 -3 113 c-2 104 -4 112 -22 112 -29 0 -27 38 3 42
17 2 23 11 25 38 5 47 27 70 69 70 26 0 33 -4 33 -19z m-3610 -105 c0 -18 -7
-25 -29 -29 -16 -3 -35 -13 -44 -21 -17 -18 -30 -95 -26 -158 3 -40 2 -43 -21
-43 l-25 0 -3 133 -3 132 31 0 c21 0 30 -5 30 -16 0 -13 5 -12 26 5 37 29 64
27 64 -3z m218 4 c35 -21 62 -72 62 -115 l0 -25 -100 0 c-92 0 -100 -2 -100
-19 0 -24 45 -61 75 -61 12 0 34 9 48 20 26 21 67 27 67 11 0 -6 -11 -22 -23
-37 -20 -23 -34 -28 -85 -32 -59 -4 -63 -3 -96 30 -115 115 16 311 152 228z
m285 9 c12 -7 25 -16 28 -21 3 -5 21 0 40 11 38 24 67 26 102 10 38 -17 47
-50 47 -165 0 -104 0 -105 -22 -102 -22 3 -23 8 -26 105 -3 110 -10 126 -59
126 -48 0 -63 -33 -63 -139 0 -94 0 -94 -25 -94 -25 0 -25 0 -25 98 0 110 -10
135 -54 135 -50 0 -61 -23 -64 -133 -4 -98 -4 -100 -28 -100 l-24 0 0 135 0
135 24 0 c13 0 26 -5 28 -12 3 -8 11 -7 28 5 28 20 62 22 93 6z m881 -10 c26
-21 27 -21 48 -3 13 13 35 19 65 19 37 0 49 -5 69 -28 22 -26 24 -36 24 -138
l0 -109 -25 0 c-25 0 -25 0 -25 96 0 112 -8 134 -52 134 -57 0 -68 -21 -68
-132 0 -98 0 -98 -25 -98 -25 0 -25 0 -25 99 0 109 -9 131 -57 131 -52 0 -63
-23 -63 -132 0 -98 0 -98 -25 -98 l-25 0 0 135 0 135 25 0 c14 0 25 -4 25 -9
0 -6 12 -3 28 5 38 20 75 17 106 -7z m872 6 c36 -15 73 -76 74 -122 0 -22 -3
-23 -106 -23 -105 0 -105 0 -99 -22 16 -56 81 -75 128 -38 25 20 67 27 67 13
-1 -14 -34 -50 -57 -62 -12 -6 -42 -11 -67 -11 -81 0 -136 74 -122 164 9 53
30 84 69 101 42 18 70 18 113 0z m283 0 c16 -8 34 -28 39 -45 10 -27 9 -30
-10 -30 -11 0 -31 11 -44 25 -26 28 -65 32 -88 9 -30 -30 -14 -48 59 -64 75
-17 95 -33 95 -80 0 -55 -34 -80 -110 -80 -65 0 -104 23 -112 65 -4 21 -1 25
17 25 13 0 30 -11 39 -25 12 -19 25 -25 50 -25 47 0 66 9 66 30 0 25 -17 35
-78 50 -79 18 -111 68 -76 118 29 42 101 55 153 27z m402 -11 c17 -16 19 -16
19 -1 0 11 8 17 25 17 l25 0 0 -139 c0 -76 -5 -152 -11 -169 -29 -85 -186 -93
-226 -12 -12 23 -11 25 13 28 18 2 31 -3 41 -17 10 -15 25 -21 52 -21 47 0 69
16 77 58 7 35 -1 39 -30 17 -44 -33 -127 -9 -160 45 -20 35 -21 121 -2 159 30
57 130 77 177 35z m314 16 c41 -15 56 -66 53 -173 -3 -87 -4 -92 -25 -95 -22
-3 -23 -1 -23 90 0 111 -13 138 -64 138 -53 0 -65 -22 -68 -130 -3 -94 -3 -95
-28 -95 l-25 0 -3 133 -3 132 26 0 c15 0 25 -6 25 -15 0 -12 6 -11 33 5 36 22
63 25 102 10z m570 -4 c94 -40 102 -203 13 -252 -32 -18 -103 -17 -138 1 -44
23 -63 67 -58 136 5 64 23 93 73 115 39 17 68 17 110 0z m275 -11 c0 -18 -5
-25 -19 -25 -10 0 -30 -9 -44 -20 -24 -19 -26 -27 -29 -113 -3 -91 -3 -92 -28
-92 l-25 0 -3 133 -3 132 31 0 c21 0 30 -5 30 -17 0 -14 2 -15 18 -1 38 34 72
35 72 3z m-3150 -80 c0 -82 3 -98 20 -115 26 -26 58 -25 87 2 21 19 23 30 23
115 0 93 0 93 25 93 l25 0 0 -135 c0 -129 -1 -135 -20 -135 -11 0 -23 7 -26
15 -5 13 -8 13 -27 0 -26 -18 -96 -19 -119 -1 -28 21 -38 62 -38 162 0 94 0
94 25 94 25 0 25 0 25 -95z m-1370 -510 l0 -65 25 16 c40 26 112 14 146 -24
49 -55 47 -162 -5 -211 -33 -31 -106 -40 -141 -17 -14 9 -25 12 -25 6 0 -5
-14 -10 -32 -10 l-31 0 6 137 c4 75 7 158 7 185 0 45 2 48 25 48 24 0 25 -2
25 -65z m1270 -120 l0 -185 -24 0 c-13 0 -26 5 -28 12 -3 8 -11 7 -28 -5 -30
-21 -82 -22 -120 -2 -73 38 -88 176 -25 235 32 30 106 38 139 16 14 -9 28 -16
31 -16 3 0 5 29 5 65 0 63 1 65 25 65 l25 0 0 -185z m660 120 c0 -69 3 -73 34
-50 32 24 93 19 121 -10 24 -23 25 -31 25 -135 l0 -110 -25 0 c-25 0 -25 0
-25 97 0 76 -4 100 -17 115 -23 25 -59 23 -88 -7 -23 -22 -25 -32 -25 -115 0
-89 0 -90 -25 -90 l-25 0 0 185 0 185 25 0 c24 0 25 -2 25 -65z m-160 5 c0
-38 2 -40 30 -40 25 0 30 -4 30 -25 0 -21 -5 -25 -31 -25 -31 0 -31 -1 -25
-37 3 -21 6 -62 6 -90 0 -50 2 -53 25 -53 19 0 25 -5 25 -21 0 -18 -5 -20 -42
-17 -56 4 -68 28 -68 134 0 73 -2 82 -20 87 -12 3 -20 14 -20 26 0 14 6 21 20
21 16 0 20 7 20 33 0 38 6 47 32 47 14 0 18 -8 18 -40z m760 0 c0 -36 3 -40
25 -40 20 0 25 -5 25 -25 0 -20 -5 -25 -25 -25 l-26 0 3 -87 c3 -83 4 -87 27
-93 13 -3 25 -13 27 -23 2 -14 -6 -17 -40 -17 -23 0 -47 5 -54 12 -8 8 -12 47
-12 109 0 94 -1 98 -22 101 -15 2 -23 10 -23 23 0 13 8 21 23 23 18 3 22 10
22 43 0 35 3 39 25 39 23 0 25 -4 25 -40z m1270 0 c0 -38 2 -40 30 -40 26 0
30 -4 30 -26 0 -22 -4 -25 -27 -22 -28 3 -28 3 -31 -67 -4 -93 2 -115 33 -115
19 0 25 -5 25 -21 0 -18 -5 -20 -42 -17 -56 4 -68 28 -68 136 0 75 -2 82 -20
82 -15 0 -20 7 -20 25 0 18 5 25 20 25 17 0 20 7 20 40 0 36 3 40 25 40 23 0
25 -4 25 -40z m290 0 c0 -38 2 -40 30 -40 25 0 30 -4 30 -25 0 -21 -5 -25 -30
-25 l-30 0 0 -74 c0 -91 5 -106 36 -106 18 0 24 -6 24 -21 0 -18 -5 -20 -42
-17 -56 4 -68 28 -68 136 0 75 -2 82 -20 82 -15 0 -20 7 -20 25 0 18 5 25 20
25 17 0 20 7 20 40 0 36 3 40 25 40 23 0 25 -4 25 -40z m-3780 -60 l0 -20 20
20 c11 11 31 20 45 20 20 0 25 -5 25 -25 0 -20 -5 -25 -25 -25 -50 0 -65 -30
-65 -130 0 -89 0 -90 -25 -90 l-25 0 0 135 0 135 25 0 c18 0 25 -5 25 -20z
m315 -2 c24 -22 26 -30 30 -135 l5 -113 -24 0 c-13 0 -26 5 -28 11 -2 6 -14 5
-33 -5 -83 -44 -174 12 -145 88 11 31 39 46 110 60 44 9 56 15 58 32 4 29 -20
46 -60 42 -23 -2 -36 -10 -43 -25 -11 -27 -55 -32 -55 -7 0 25 20 54 43 64 44
18 114 11 142 -12z m141 7 c5 -13 9 -13 34 0 54 28 119 13 139 -32 6 -13 11
-69 11 -123 0 -100 0 -100 -25 -100 -25 0 -25 0 -25 97 0 76 -4 100 -17 115
-23 25 -59 23 -88 -7 -23 -22 -25 -32 -25 -115 0 -89 0 -90 -25 -90 l-25 0 0
128 c0 71 3 132 7 135 11 12 33 8 39 -8z m738 -7 c33 -30 38 -62 10 -66 -14
-2 -27 6 -38 22 -28 44 -120 27 -103 -18 3 -8 25 -20 49 -26 73 -18 107 -38
114 -65 16 -63 -27 -105 -106 -105 -54 0 -95 23 -108 60 -10 28 -9 30 12 30
14 0 30 -10 40 -25 30 -46 124 -28 114 22 -2 12 -22 23 -68 34 -88 24 -114 56
-89 113 15 31 43 44 101 45 35 1 53 -5 72 -21z m856 7 c35 -18 39 -31 42 -158
l3 -97 -27 0 c-16 0 -28 5 -28 10 0 6 -13 4 -30 -5 -70 -36 -150 -4 -150 61 0
47 27 70 97 84 78 15 83 17 83 34 0 24 -29 46 -60 46 -28 0 -60 -22 -60 -41 0
-5 -11 -9 -25 -9 -41 0 -28 50 20 78 29 16 101 15 135 -3z m426 -30 c7 -22 20
-66 29 -98 9 -32 19 -57 21 -54 2 2 17 46 32 98 25 85 31 94 54 97 24 3 27 -2
46 -65 11 -37 24 -80 27 -96 4 -15 11 -29 15 -32 4 -3 20 40 36 95 25 90 30
100 51 100 13 0 23 -6 23 -12 0 -7 -17 -67 -38 -133 -36 -116 -39 -120 -67
-123 -30 -3 -30 -2 -61 95 l-31 98 -29 -95 c-29 -91 -31 -95 -60 -98 l-30 -3
-39 123 c-21 68 -40 129 -43 136 -3 10 3 13 23 10 23 -2 31 -10 41 -43z m547
34 c37 -17 47 -50 47 -159 0 -99 0 -100 -24 -100 -13 0 -26 5 -28 12 -3 8 -11
7 -28 -5 -59 -41 -150 -6 -150 59 0 47 27 71 99 85 65 12 85 27 75 53 -14 35
-97 32 -109 -4 -8 -26 -55 -28 -55 -2 0 22 18 46 45 60 26 15 98 15 128 1z
m157 -4 c0 -19 9 -19 34 0 26 19 86 19 113 0 30 -21 43 -74 43 -172 0 -82 0
-83 -25 -83 -25 0 -25 1 -25 79 0 97 -13 139 -47 147 -33 9 -71 -10 -83 -42
-6 -14 -10 -61 -10 -105 0 -78 0 -79 -25 -79 l-25 0 0 128 c0 71 3 132 7 135
12 13 43 7 43 -8z m898 -5 c85 -52 80 -199 -8 -242 -76 -38 -150 -14 -182 59
-32 73 -10 155 51 188 38 21 101 18 139 -5z m-3178 -710 l0 -190 -25 0 c-17 0
-25 6 -25 17 0 15 -1 15 -19 -1 -49 -44 -146 -23 -175 39 -20 42 -21 117 -1
155 29 55 118 78 170 44 l25 -16 0 71 c0 69 1 71 25 71 l25 0 0 -190z m-940
120 c0 -38 2 -40 31 -40 26 0 30 -3 27 -22 -2 -17 -11 -24 -31 -26 l-28 -3 3
-87 c3 -87 3 -87 31 -90 19 -2 27 -9 27 -23 0 -15 -7 -19 -39 -19 -56 0 -65
17 -71 129 -4 84 -7 96 -22 93 -13 -2 -18 4 -18 23 0 18 5 25 20 25 17 0 20 7
20 40 0 36 3 40 25 40 23 0 25 -4 25 -40z m1790 1 c0 -36 3 -40 28 -43 37 -4
39 -43 2 -43 -25 0 -25 -1 -25 -90 l0 -90 28 -3 c19 -2 27 -9 27 -23 0 -16 -7
-19 -39 -19 -58 0 -71 24 -71 132 0 81 -2 88 -20 88 -15 0 -20 7 -20 25 0 18
5 25 20 25 17 0 20 7 20 40 0 36 3 40 25 40 22 0 25 -4 25 -39z m-7098 -9 c7
-17 61 -51 71 -45 5 3 7 1 4 -4 -4 -6 1 -17 10 -24 14 -12 16 -12 8 1 -8 13
-7 13 8 1 9 -7 17 -21 18 -30 0 -10 2 -11 6 -3 7 17 23 15 23 -3 0 -9 17 -30
37 -48 21 -18 63 -54 93 -82 31 -27 74 -65 96 -83 l39 -33 -46 33 c-26 18 -81
61 -123 96 -42 35 -81 62 -87 60 -5 -2 0 -23 14 -50 22 -44 22 -47 5 -51 -23
-6 -24 -47 -2 -90 l16 -32 -37 35 c-51 49 -65 80 -65 149 0 78 -12 106 -68
164 -25 26 -41 47 -35 47 6 0 13 -3 15 -8z m5141 -44 c28 -15 46 -38 47 -60 0
-27 -43 -23 -55 5 -13 29 -91 38 -102 11 -10 -27 10 -47 63 -59 27 -6 59 -17
71 -23 48 -26 37 -102 -17 -129 -69 -35 -180 6 -180 66 0 21 42 11 62 -14 23
-29 77 -34 102 -9 30 30 13 49 -64 69 -66 17 -90 39 -90 81 0 45 38 74 97 74
24 0 54 -5 66 -12z m451 1 c34 -16 44 -49 48 -161 4 -97 4 -98 -19 -98 -13 0
-26 7 -30 15 -5 14 -8 14 -25 -2 -28 -25 -109 -24 -137 1 -27 25 -29 86 -3
109 10 10 45 22 78 28 66 13 88 27 78 52 -13 36 -102 33 -111 -3 -3 -13 -14
-20 -29 -20 -32 0 -32 33 1 65 19 20 34 25 74 25 28 0 61 -5 75 -11z m156 -5
c0 -15 2 -15 25 0 38 25 101 21 130 -9 24 -23 25 -31 25 -135 l0 -110 -25 0
c-25 0 -25 0 -25 99 0 77 -4 103 -16 115 -23 23 -61 19 -89 -9 -23 -22 -25
-32 -25 -115 0 -89 0 -90 -25 -90 l-25 0 0 128 c0 71 3 132 7 135 13 13 43 7
43 -9z m870 1 c40 -21 60 -63 60 -128 0 -61 -21 -97 -70 -122 -61 -32 -147 -5
-177 55 -32 64 -7 166 49 196 32 18 103 17 138 -1z m167 -85 c1 -52 5 -101 8
-108 7 -20 47 -30 77 -20 35 12 48 56 48 156 0 70 1 73 23 70 21 -3 22 -7 25
-135 l3 -133 -31 0 c-18 0 -29 4 -25 10 9 14 1 13 -39 -6 -43 -21 -100 -12
-121 19 -15 23 -30 229 -17 242 3 3 15 5 26 3 17 -3 20 -13 23 -98z m-5931
-613 c14 -17 23 -36 19 -45 -3 -9 0 -19 7 -24 11 -6 11 -8 0 -8 -10 0 -10 -5
-1 -22 l12 -21 -28 21 c-32 25 -57 29 -49 8 4 -11 0 -13 -15 -9 -13 3 -21 1
-21 -7 0 -7 -8 -9 -20 -5 -18 6 -50 -13 -50 -29 0 -17 -43 -47 -58 -41 -9 3
-19 5 -22 3 -7 -4 -17 56 -10 62 3 3 21 29 39 59 43 70 49 76 96 88 52 12 70
7 101 -30z m4274 -176 c14 -4 32 -19 40 -34 14 -25 13 -30 -3 -59 -17 -30 -17
-31 3 -50 26 -24 26 -58 -1 -92 -19 -24 -26 -26 -105 -26 l-84 0 0 128 c0 71
3 132 7 135 8 9 110 7 143 -2z m840 -126 c0 -110 -3 -135 -14 -135 -8 0 -16 5
-18 11 -2 7 -15 4 -34 -7 -78 -44 -154 58 -109 145 20 40 66 55 111 36 l34
-14 0 50 c0 37 4 49 15 49 13 0 15 -22 15 -135z m1002 115 c30 -23 43 -60 22
-60 -7 0 -18 9 -24 20 -24 44 -99 50 -120 9 -18 -33 4 -56 67 -70 67 -15 93
-37 93 -79 0 -58 -72 -94 -144 -70 -38 12 -50 24 -60 58 -11 33 16 28 42 -8
18 -23 30 -30 58 -30 48 0 74 16 74 44 0 31 -18 45 -80 61 -90 24 -115 71 -65
120 31 32 100 35 137 5z m1708 -115 c0 -113 -2 -135 -15 -135 -8 0 -15 4 -15
9 0 6 -12 3 -27 -5 -35 -18 -47 -18 -83 1 -49 26 -61 113 -21 159 26 30 58 38
96 21 l35 -14 0 50 c0 37 4 49 15 49 13 0 15 -22 15 -135z m-7795 -51 c25
-109 26 -135 21 -308 -3 -79 -7 -101 -22 -115 -17 -15 -17 -15 -4 2 12 16 12
20 0 27 -8 5 -18 6 -22 4 -9 -6 -137 126 -155 159 -6 12 -9 25 -7 29 3 5 -2 8
-10 8 -8 0 -15 8 -15 18 -1 9 -4 34 -7 54 -5 31 -3 39 12 45 11 4 29 17 40 29
25 24 58 84 47 84 -4 0 -2 5 5 12 7 7 12 20 12 30 0 10 5 18 10 18 6 0 10 5
10 10 0 6 6 17 13 24 23 25 47 -18 72 -130z m4613 93 c7 -6 12 -35 12 -78 0
-37 5 -71 10 -74 17 -10 11 -25 -10 -25 -11 0 -20 5 -20 10 0 6 -13 4 -31 -5
-50 -26 -109 -2 -109 45 0 24 49 60 83 60 42 0 60 16 46 42 -14 26 -64 24 -83
-4 -11 -15 -19 -19 -26 -12 -14 14 14 52 43 57 27 5 68 -3 85 -16z m1681 12
c18 -6 38 -24 46 -40 45 -86 -24 -177 -112 -148 -82 27 -83 164 0 188 17 5 32
10 33 10 1 1 15 -4 33 -10z m539 -17 c7 -9 12 -44 12 -82 0 -38 5 -71 12 -78
9 -9 7 -12 -9 -12 -12 0 -24 4 -27 9 -4 5 -20 3 -37 -6 -55 -27 -109 7 -95 60
6 25 38 42 96 49 19 2 25 9 25 28 0 22 -5 25 -38 28 -26 2 -39 -1 -43 -12 -8
-22 -36 -20 -32 2 7 37 109 47 136 14z m500 0 c7 -10 12 -47 12 -94 0 -63 -3
-78 -15 -78 -12 0 -15 15 -15 73 0 75 -9 97 -41 97 -35 0 -49 -28 -49 -101 0
-55 -3 -69 -15 -69 -12 0 -15 15 -15 73 0 74 -9 97 -40 97 -39 0 -51 -23 -51
-98 0 -56 -3 -72 -14 -72 -12 0 -15 19 -15 95 0 84 10 119 23 83 4 -10 7 -10
18 0 18 17 74 15 89 -3 11 -13 15 -14 29 -2 34 30 75 29 99 -1z m212 -10 c11
-13 20 -38 20 -54 0 -25 -3 -28 -25 -22 -38 9 -115 -5 -115 -21 0 -39 74 -61
100 -30 7 8 19 15 27 15 26 0 -5 -38 -40 -49 -63 -21 -121 25 -121 95 0 87
103 132 154 66z m-1979 18 c13 -7 19 -7 19 0 0 5 7 10 15 10 12 0 15 -16 15
-88 0 -144 -20 -181 -96 -182 -31 0 -46 6 -64 25 -23 24 -23 25 -3 25 11 0 26
-7 33 -15 28 -34 100 -1 100 45 0 21 -15 27 -25 10 -11 -18 -84 -11 -104 9
-40 40 -35 136 8 161 22 13 78 12 102 0z m2509 -9 c5 -11 10 -49 10 -85 0 -37
4 -66 10 -66 6 0 10 -4 10 -10 0 -13 -37 -13 -42 0 -2 7 -15 5 -36 -5 -56 -28
-112 4 -98 58 6 25 38 42 96 49 19 2 25 9 25 28 0 22 -5 25 -38 28 -32 3 -39
0 -44 -18 -6 -21 -24 -23 -30 -3 -14 41 116 63 137 24z m-3935 -531 c15 -60
30 -110 34 -110 4 0 15 33 24 73 31 132 37 147 56 147 15 0 24 -20 46 -110 15
-60 30 -108 34 -106 4 3 18 51 31 106 21 90 39 124 56 108 2 -3 -12 -65 -32
-137 -33 -117 -39 -132 -57 -129 -16 2 -25 20 -44 93 -32 123 -33 125 -44 96
-6 -14 -19 -62 -31 -108 -18 -73 -23 -84 -41 -81 -17 2 -26 23 -54 123 -37
136 -38 145 -19 145 9 0 23 -36 41 -110z m555 60 c0 -47 1 -50 19 -40 37 19
88 12 110 -16 51 -64 11 -169 -63 -167 -20 1 -43 7 -51 13 -11 9 -15 9 -15 1
0 -6 -7 -11 -15 -11 -13 0 -15 22 -15 135 0 113 2 135 15 135 11 0 15 -12 15
-50z m1700 25 c14 -13 20 -31 20 -60 0 -58 -24 -78 -100 -83 l-60 -4 0 -49 c0
-37 -4 -49 -15 -49 -13 0 -15 22 -15 136 l0 137 75 -5 c53 -4 81 -10 95 -23z
m500 -55 c0 -44 4 -80 8 -80 4 0 26 18 47 40 21 22 48 40 60 40 17 0 14 -6
-19 -36 l-38 -36 40 -59 c34 -50 38 -59 22 -59 -11 0 -30 18 -47 45 -31 50
-35 52 -58 28 -11 -11 -15 -26 -11 -45 5 -23 2 -28 -14 -28 -19 0 -20 7 -20
113 0 61 3 122 6 135 13 46 24 19 24 -58z m-2302 -27 c13 -14 22 -37 22 -55
l0 -30 -72 4 c-79 3 -93 -7 -59 -41 25 -25 63 -27 85 -6 16 16 36 20 36 7 0
-14 -33 -40 -60 -47 -105 -26 -155 148 -55 191 38 16 74 9 103 -23z m1214 5
c4 -7 8 -43 8 -80 0 -39 4 -68 10 -68 6 0 10 -4 10 -10 0 -13 -37 -13 -45 -1
-3 6 -17 4 -33 -5 -35 -18 -52 -18 -80 2 -49 34 -17 89 59 102 38 7 44 11 44
32 0 21 -5 26 -34 28 -27 3 -39 -2 -52 -20 -20 -26 -34 -20 -24 11 12 38 114
45 137 9z m761 21 c33 -18 37 -28 37 -101 0 -39 4 -68 10 -68 6 0 10 -4 10
-10 0 -13 -37 -13 -45 -1 -3 6 -17 4 -33 -5 -35 -18 -52 -18 -80 2 -25 18 -30
65 -8 84 8 6 36 15 63 18 43 6 48 10 48 32 0 22 -5 25 -37 28 -29 2 -39 -1
-48 -17 -13 -26 -30 -27 -30 -2 0 21 16 37 45 44 34 8 46 7 68 -4z m610 0 c33
-18 37 -28 37 -99 0 -38 5 -71 12 -78 9 -9 7 -12 -9 -12 -12 0 -23 6 -26 13
-3 9 -7 9 -20 -1 -21 -17 -83 -18 -102 -2 -19 16 -19 54 0 74 9 8 32 18 53 21
58 10 64 13 60 37 -4 33 -71 39 -88 9 -13 -26 -30 -27 -30 -2 0 21 16 37 45
44 34 8 46 7 68 -4z m210 -3 c15 -8 27 -11 27 -5 0 5 7 9 15 9 12 0 15 -19 15
-110 0 -104 -1 -112 -25 -135 -40 -41 -145 -26 -145 21 0 20 14 18 35 -6 35
-39 105 -14 105 37 0 20 -3 22 -19 13 -34 -18 -80 -12 -106 15 -45 44 -28 142
29 165 30 12 37 12 69 -4z m538 -6 c13 -7 19 -7 19 0 0 5 7 10 15 10 12 0 15
-19 15 -109 0 -94 -3 -112 -21 -135 -16 -21 -29 -26 -63 -26 -44 0 -86 22 -86
46 0 20 14 18 35 -6 35 -39 105 -14 105 37 0 20 -3 22 -19 13 -34 -18 -80 -12
-106 15 -33 32 -35 100 -4 139 22 28 73 35 110 16z m-2719 -1221 c-4 -191 -3
-192 106 -199 99 -6 113 -24 22 -28 -77 -4 -104 2 -130 28 -17 17 -20 34 -20
124 l0 105 -42 3 c-57 4 -62 26 -6 30 l43 3 3 43 c2 28 7 42 15 39 9 -3 11
-43 9 -148z m-610 110 c28 -37 17 -84 -25 -106 l-32 -16 26 -9 c73 -24 55
-138 -21 -138 -43 0 -61 10 -76 44 -12 29 -13 25 -14 -62 0 -85 -2 -95 -25
-117 -27 -28 -45 -31 -78 -14 -30 16 -37 28 -37 67 0 30 28 72 49 72 5 0 -4
13 -20 29 -34 35 -36 59 -8 95 16 20 29 26 60 26 21 0 39 -5 39 -11 0 -5 5 -7
10 -4 6 4 10 3 9 -2 -5 -30 2 -37 19 -17 9 12 26 26 37 32 18 10 16 12 -15 13
-19 1 -56 1 -82 -1 -39 -1 -52 3 -73 24 -41 41 -29 101 25 118 8 3 60 4 114 4
95 -1 100 -2 118 -27z m1703 -26 l90 -48 3 -122 3 -122 -40 -26 c-23 -14 -70
-40 -106 -57 l-66 -33 -107 55 -107 55 -3 121 c-2 89 1 124 10 131 40 32 194
104 213 99 11 -3 61 -27 110 -53z m-10797 -934 c121 -31 225 -91 317 -184 92
-93 140 -175 181 -310 25 -82 27 -105 28 -250 0 -192 -13 -256 -81 -395 -81
-164 -226 -287 -408 -347 -108 -35 -305 -44 -422 -18 -277 61 -487 270 -554
550 -18 78 -20 110 -16 240 6 172 19 231 80 355 53 110 176 237 282 292 180
93 394 117 593 67z m992 -639 l0 -640 380 0 380 0 0 -110 0 -110 -500 0 -500
0 0 750 0 750 120 0 120 0 0 -640z m1180 -110 l0 -751 -122 3 -123 3 -3 735
c-1 404 0 741 3 748 3 9 38 12 125 12 l120 0 0 -750z m559 382 c74 -202 175
-480 225 -619 50 -139 94 -249 97 -245 4 4 41 104 84 222 43 118 142 392 221
609 79 217 144 395 144 397 0 2 59 4 131 4 121 0 131 -1 124 -17 -4 -10 -65
-171 -137 -358 -71 -187 -197 -517 -280 -733 l-151 -393 -141 3 -140 3 -43
110 c-51 128 -281 727 -408 1060 -48 127 -96 251 -106 278 l-19 47 133 0 132
0 134 -368z m2251 263 l0 -105 -407 -2 -408 -3 -3 -202 -2 -203 367 -2 368 -3
0 -100 0 -100 -367 -3 -368 -2 0 -225 0 -225 410 0 410 0 0 -110 0 -110 -535
0 -535 0 0 750 0 750 535 0 535 0 0 -105z m1062 82 c140 -41 227 -108 280
-215 32 -64 33 -72 33 -182 0 -98 -3 -122 -23 -164 -34 -74 -84 -129 -146
-162 -31 -16 -56 -31 -56 -34 1 -3 24 -18 53 -35 60 -35 109 -101 132 -178 9
-29 20 -124 26 -212 7 -105 18 -180 30 -217 10 -32 19 -62 19 -68 0 -16 -235
-13 -248 3 -18 22 -32 101 -38 224 -11 228 -36 293 -131 340 -58 28 -58 28
-295 31 l-238 3 -1 -253 c-1 -251 -4 -337 -15 -347 -3 -3 -57 -8 -120 -9
l-114 -4 0 752 0 751 398 -3 c332 -4 406 -7 454 -21z m-3416 -1817 c230 -58
387 -197 453 -399 12 -35 21 -70 21 -78 0 -10 -26 -13 -119 -13 l-118 0 -33
68 c-38 75 -115 159 -178 191 -98 50 -244 65 -355 36 -235 -61 -367 -263 -367
-559 0 -187 45 -316 147 -426 166 -180 476 -198 657 -39 85 75 146 192 146
281 l0 38 -210 0 -210 0 0 95 0 95 330 0 330 0 0 -395 0 -395 -99 0 -98 0 -7
38 c-3 20 -6 71 -6 112 l-1 75 -25 -30 c-64 -75 -129 -134 -174 -159 -121 -66
-333 -86 -497 -46 -314 75 -519 341 -540 701 -14 253 61 475 214 626 185 182
467 252 739 183z m1634 -1 c270 -67 477 -290 531 -569 20 -105 15 -310 -10
-405 -71 -270 -254 -460 -513 -532 -89 -24 -328 -25 -418 0 -315 84 -515 340
-546 697 -13 155 32 361 107 487 165 275 510 406 849 322z m-4910 -649 l0
-640 380 0 380 0 0 -105 0 -105 -505 0 -505 0 0 745 0 745 125 0 125 0 0 -640z
m1142 108 l3 -533 26 -55 c51 -108 141 -170 271 -189 201 -28 367 61 418 226
19 62 20 91 20 574 l0 509 126 0 125 0 -3 -537 -3 -538 -28 -78 c-65 -185
-182 -292 -377 -344 -92 -25 -330 -25 -420 0 -214 58 -352 199 -395 405 -12
53 -15 174 -15 580 l0 512 125 0 124 0 3 -532z m13329 -583 c5 4 9 -499 9
-1290 0 -1431 4 -1348 -63 -1485 -37 -75 -128 -173 -201 -215 -27 -16 -78 -40
-115 -54 l-66 -26 -680 0 c-374 0 -896 2 -1160 5 l-480 5 440 4 c242 3 411 7
375 11 -47 5 -16 7 115 9 185 3 472 16 423 19 -19 1 -28 8 -29 20 0 14 -2 14
-9 -3 -7 -16 -9 -14 -9 15 -1 26 2 31 9 20 8 -12 10 -10 10 8 0 13 4 21 8 18
4 -2 9 4 9 15 1 11 -2 17 -7 14 -5 -3 -12 0 -16 6 -4 7 -3 9 4 5 6 -3 13 -2
17 4 3 5 1 10 -5 10 -6 0 -4 10 6 25 15 22 15 25 1 31 -13 5 -14 9 -4 19 7 7
15 11 20 8 10 -6 9 5 -4 29 -8 15 -8 19 0 14 7 -5 11 3 11 21 1 30 23 67 33
56 4 -3 7 -1 7 5 0 7 -5 12 -11 12 -5 0 -8 4 -4 10 3 5 13 6 22 3 13 -5 12 -2
-3 15 -9 12 -22 18 -27 15 -6 -3 -7 -1 -3 6 4 6 13 9 19 5 7 -3 3 2 -8 11 -19
16 -19 16 -1 13 10 -2 21 3 23 10 3 8 -3 11 -18 10 -16 -2 -24 3 -27 16 -3 14
0 17 11 13 13 -5 14 0 7 24 -5 16 -6 29 -4 29 11 0 33 -28 27 -34 -4 -3 0 -6
9 -6 23 0 29 12 15 28 -7 10 -8 13 -1 9 7 -4 14 2 17 14 3 12 9 19 14 16 9 -6
8 56 -1 72 -4 5 -3 12 2 15 9 5 12 -9 13 -51 1 -13 6 -23 12 -23 6 0 7 3 4 7
-4 3 -2 12 4 20 9 10 8 13 0 13 -8 0 -11 12 -9 33 2 20 8 31 16 29 8 -1 11 2
8 7 -4 5 -2 12 4 16 5 3 10 11 10 17 0 7 -4 7 -13 -1 -10 -8 -19 -7 -33 5 -10
8 -13 13 -7 9 15 -7 48 14 49 33 2 28 5 31 19 26 13 -5 13 -9 3 -23 -12 -14
-11 -15 5 -2 10 8 15 21 12 29 -3 10 0 12 10 8 12 -4 13 -2 5 13 -8 15 -4 25
19 50 29 31 46 62 33 60 -18 -3 -46 3 -34 8 6 2 12 11 12 19 0 20 13 17 28 -7
7 -12 16 -18 20 -14 7 6 8 10 11 36 0 6 8 9 16 6 22 -9 28 10 8 23 -17 11 -17
11 0 6 11 -4 17 0 18 12 0 10 3 12 6 5 2 -7 11 -13 20 -13 12 0 12 2 -2 16 -9
9 -14 22 -11 30 3 7 0 15 -7 18 -7 2 0 5 15 5 14 1 28 -2 31 -6 2 -5 2 -2 1 4
-4 15 33 36 50 30 10 -4 13 4 11 26 l-3 32 22 -28 c12 -15 25 -24 29 -21 4 4
2 13 -5 21 -6 7 -8 16 -4 20 3 3 6 1 6 -5 0 -7 5 -12 10 -12 14 0 12 28 -2 32
-7 3 -5 7 6 11 10 4 15 3 11 -3 -3 -6 -1 -10 4 -10 6 0 11 4 11 10 0 5 6 7 14
4 8 -3 17 0 21 5 3 6 10 9 14 7 4 -3 7 7 8 22 2 24 1 24 -7 7 -5 -11 -9 -14
-9 -7 -1 7 -5 10 -11 7 -5 -3 -10 -3 -10 0 0 3 14 12 32 19 34 15 62 11 51 -7
-3 -6 -1 -7 6 -3 9 6 9 13 -3 30 -8 13 -11 28 -6 36 6 9 10 7 15 -9 3 -11 11
-21 16 -21 6 0 8 4 5 9 -3 5 1 11 9 15 8 3 15 10 15 16 0 6 -6 8 -12 4 -7 -4
-9 -3 -5 1 11 13 38 15 30 2 -4 -6 0 -8 9 -4 9 3 20 1 25 -4 6 -6 10 -4 10 6
0 8 -7 15 -16 15 -10 0 -7 5 9 14 16 8 29 9 37 3 7 -5 20 -6 29 -3 9 4 24 1
33 -6 14 -12 15 -11 1 6 -20 26 -21 43 -2 58 16 12 16 11 2 -6 -14 -18 -13
-19 3 -13 11 4 20 1 23 -7 7 -19 38 -9 49 17 10 22 46 26 53 6 2 -5 9 -6 14
-3 7 5 8 2 3 -6 -5 -8 -3 -11 6 -8 8 3 13 11 11 18 -2 10 0 11 10 2 10 -7 18
-8 28 0 12 8 11 9 -5 4 -20 -6 -20 -6 -1 9 17 13 21 13 32 -3 12 -16 13 -15
22 8 5 14 7 29 4 34 -3 5 0 6 7 2 6 -4 9 -11 6 -16 -3 -5 -1 -12 5 -15 6 -4
10 -3 9 2 -3 19 2 25 14 16 23 -19 67 -25 67 -9 0 7 9 16 21 19 12 3 18 10 15
16 -4 5 -1 13 5 17 8 4 9 3 5 -4 -4 -7 -2 -12 3 -12 6 0 11 -6 11 -14 0 -17
27 -29 35 -16 14 23 44 -10 48 -53 2 -23 5 66 6 198 1 132 4 274 6 315 2 41 4
308 4 593 1 411 4 517 14 511 10 -6 10 -4 0 7 -7 7 -12 20 -12 29 1 11 2 11 6
-3 2 -9 9 -15 14 -12z m-14641 -1063 c31 -15 35 -22 38 -59 2 -34 -1 -45 -17
-55 -26 -16 -26 -25 -2 -33 27 -8 45 -64 31 -99 -14 -39 -64 -56 -160 -56
l-80 0 0 160 0 160 78 0 c53 0 88 -5 112 -18z m319 -7 c12 -11 23 -34 27 -52
5 -27 2 -37 -22 -60 l-29 -28 23 -22 c17 -18 22 -33 22 -78 0 -48 -2 -55 -20
-55 -17 0 -20 7 -20 50 0 69 -22 90 -95 90 l-55 0 0 -70 c0 -63 -2 -70 -20
-70 -19 0 -20 7 -20 161 l0 161 95 -4 c78 -2 98 -6 114 -23z m292 -130 c32
-82 59 -153 59 -157 0 -5 -9 -8 -20 -8 -14 0 -22 11 -31 40 -7 22 -15 40 -18
41 -3 0 -15 3 -26 5 -11 2 -44 2 -73 -2 -50 -5 -54 -7 -68 -45 -11 -27 -22
-39 -36 -39 -12 0 -18 5 -15 13 3 6 31 79 63 160 54 139 59 148 82 145 22 -3
31 -20 83 -153z m234 27 l80 -127 3 128 c2 119 4 127 22 127 19 0 20 -7 20
-160 l0 -160 -23 0 c-19 0 -38 23 -102 126 -43 69 -82 127 -87 130 -4 3 -8
-54 -8 -125 0 -118 -2 -131 -17 -131 -17 0 -18 13 -15 160 3 157 3 160 25 160
17 -1 40 -29 102 -128z m368 114 c18 -7 43 -26 57 -41 22 -24 25 -35 25 -105
0 -73 -2 -81 -29 -109 -36 -37 -80 -51 -163 -51 l-63 0 0 160 0 160 70 0 c39
0 85 -6 103 -14z m382 -114 l80 -127 3 128 c2 119 4 127 22 127 19 0 20 -7 20
-160 0 -159 0 -160 -22 -160 -18 0 -39 25 -102 125 -43 69 -81 125 -85 125 -4
0 -5 -56 -3 -125 4 -122 4 -125 -17 -125 -21 0 -21 4 -21 160 0 159 0 160 23
160 17 0 38 -26 102 -128z m419 107 c14 -11 33 -34 41 -50 15 -28 15 -29 -10
-29 -14 0 -25 5 -25 10 0 26 -50 60 -87 60 -68 0 -113 -52 -113 -130 0 -78 45
-130 113 -130 29 0 46 7 68 29 16 16 29 39 29 50 0 18 -6 21 -45 21 -38 0 -45
3 -45 20 0 18 7 20 65 20 l65 0 0 -85 c0 -69 -3 -85 -15 -85 -9 0 -15 10 -15
26 l0 26 -31 -26 c-44 -38 -124 -37 -170 1 -40 34 -59 79 -59 139 0 54 29 113
68 137 40 25 132 23 166 -4z m706 6 c25 -13 60 -60 60 -80 0 -17 -36 0 -64 30
-28 29 -40 35 -76 35 -34 0 -47 -6 -70 -30 -43 -46 -48 -95 -18 -173 29 -76
160 -73 187 4 15 42 6 52 -40 46 -34 -4 -39 -2 -39 14 0 17 8 19 59 19 l60 0
6 -53 c4 -29 5 -66 3 -82 -4 -33 -28 -47 -28 -16 0 26 -7 26 -45 1 -42 -28
-112 -27 -156 3 -45 30 -63 70 -63 137 0 101 55 160 147 160 26 0 61 -7 77
-15z m336 -18 c32 -37 31 -81 -1 -111 -23 -22 -24 -23 -6 -42 12 -12 21 -40
24 -77 5 -56 5 -58 -16 -55 -19 3 -22 10 -25 53 -5 69 -22 85 -94 85 l-58 0 0
-70 c0 -63 -2 -70 -20 -70 -19 0 -20 7 -20 161 l0 161 96 -4 c91 -3 97 -5 120
-31z m272 -80 c24 -61 52 -133 63 -159 l19 -48 -23 0 c-18 0 -26 9 -37 43
l-15 42 -75 0 -75 0 -15 -42 c-11 -33 -20 -43 -36 -43 -21 0 -19 8 38 152 32
83 61 155 64 160 3 4 15 8 27 8 19 0 28 -17 65 -113z m301 102 c64 -23 79
-116 24 -159 -20 -16 -40 -20 -94 -20 l-69 0 0 -65 c0 -58 -2 -65 -20 -65 -19
0 -20 7 -20 160 l0 160 74 0 c40 0 87 -5 105 -11z m146 -59 l7 -71 82 3 81 3
3 68 c3 59 5 67 22 67 19 0 20 -8 20 -160 0 -153 -1 -160 -20 -160 -18 0 -20
7 -20 75 l0 75 -84 0 -83 0 -7 -46 c-3 -26 -6 -60 -6 -75 0 -19 -5 -29 -15
-29 -12 0 -15 18 -17 93 -4 233 -4 227 13 227 14 0 18 -15 24 -70z m609 49
c14 -11 33 -34 41 -50 15 -28 15 -29 -10 -29 -14 0 -25 5 -25 10 0 25 -50 60
-85 60 -63 0 -89 -25 -106 -100 -31 -135 129 -221 190 -102 7 12 21 22 31 22
19 0 19 -2 7 -32 -40 -98 -203 -105 -250 -11 -44 87 -18 203 54 240 40 21 122
16 153 -8z m403 -2 c44 -23 67 -70 67 -137 0 -110 -47 -151 -181 -158 l-83 -5
0 163 0 163 83 -5 c50 -3 95 -11 114 -21z m333 8 c0 -12 -16 -15 -85 -15 l-85
0 0 -55 0 -55 80 0 c64 0 80 -3 80 -15 0 -12 -16 -15 -80 -15 l-80 0 0 -55 0
-55 85 0 c78 0 85 -2 85 -20 0 -19 -7 -20 -105 -20 l-105 0 0 160 0 160 105 0
c87 0 105 -3 105 -15z m251 -14 c34 -34 38 -61 9 -61 -11 0 -20 5 -20 10 0 6
-9 19 -20 30 -25 25 -91 27 -114 4 -39 -38 -7 -78 75 -95 78 -16 104 -37 104
-88 0 -58 -28 -83 -99 -89 -72 -6 -114 11 -132 54 -17 42 -18 39 6 41 11 1 20
-3 20 -9 0 -7 10 -22 22 -35 44 -47 148 -21 148 37 0 25 -32 45 -99 60 -95 22
-131 91 -76 145 20 21 34 25 85 25 55 0 65 -3 91 -29z m417 15 c22 -12 62 -62
62 -78 0 -19 -34 -5 -64 27 -58 61 -138 43 -171 -38 -37 -92 16 -187 104 -187
35 0 86 41 96 78 6 21 3 22 -45 22 -44 0 -51 3 -48 18 3 14 16 18 66 20 l62 3
0 -86 c0 -65 -3 -86 -12 -83 -7 3 -14 14 -16 27 -3 22 -4 22 -35 -5 -27 -23
-38 -26 -89 -22 -47 3 -64 10 -88 33 -74 71 -64 207 19 262 39 26 120 31 159
9z m241 -93 c109 -170 100 -168 101 -20 0 120 1 127 20 127 19 0 20 -7 20
-160 l0 -160 -24 0 c-20 0 -37 21 -102 126 -43 69 -81 127 -86 130 -4 3 -8
-54 -8 -125 0 -124 -1 -131 -20 -131 -19 0 -20 7 -20 160 l0 160 25 0 c21 0
37 -17 94 -107z m-5983 -537 c19 -19 34 -41 34 -50 0 -25 -35 -19 -49 8 -15
28 -51 46 -90 46 -93 0 -134 -159 -61 -232 38 -38 100 -39 135 -3 14 13 25 31
25 40 0 8 9 15 20 15 24 0 25 -11 5 -50 -40 -78 -174 -81 -233 -5 -42 54 -39
163 6 216 32 39 54 48 121 48 47 1 57 -3 87 -33z m298 5 c36 -33 35 -83 0
-116 -22 -20 -24 -26 -11 -31 20 -7 37 -56 37 -105 0 -31 -4 -39 -19 -39 -15
0 -19 10 -24 53 -8 68 -31 87 -103 87 l-54 0 0 -70 c0 -63 -2 -70 -20 -70 -19
0 -20 7 -20 161 l0 161 94 -4 c84 -3 97 -6 120 -27z m304 12 c-3 -16 -15 -18
-88 -18 l-85 0 -3 -52 -3 -53 80 0 c65 0 81 -3 81 -15 0 -12 -16 -15 -80 -15
l-80 0 0 -55 0 -55 38 -2 c20 -1 61 -2 90 -2 43 0 52 -3 52 -18 0 -16 -11 -18
-110 -18 l-110 0 0 160 0 160 111 0 c100 0 110 -2 107 -17z m257 -135 c33 -83
62 -155 63 -160 2 -4 -6 -8 -18 -8 -16 0 -26 10 -37 40 l-16 40 -77 0 -77 0
-13 -40 c-10 -31 -18 -40 -36 -40 -22 0 -21 4 32 138 30 75 59 147 64 160 6
14 18 22 33 22 20 0 30 -17 82 -152z m295 132 c0 -18 -7 -20 -55 -20 l-55 0 0
-140 c0 -133 -1 -140 -20 -140 -19 0 -20 7 -20 146 l0 146 -50 -4 c-42 -2 -50
0 -50 15 0 15 13 17 125 17 118 0 125 -1 125 -20z m198 -62 c16 -46 38 -107
48 -135 10 -29 21 -53 24 -53 3 0 27 61 54 135 40 110 52 135 68 135 23 0 26
12 -45 -175 -47 -124 -55 -140 -77 -143 -23 -3 -28 6 -80 145 -68 181 -66 173
-42 173 16 0 26 -17 50 -82z m470 65 c-4 -20 -4 -20 -106 -22 l-73 -1 3 -47 3
-48 78 -3 c59 -2 77 -6 77 -17 0 -12 -17 -15 -80 -15 l-80 0 0 -55 0 -54 87
-3 c74 -3 88 -6 91 -20 3 -16 -7 -18 -107 -18 l-111 0 0 160 0 160 111 0 c100
0 110 -2 107 -17z m342 -5 c76 -39 101 -126 61 -215 -26 -56 -65 -75 -168 -81
l-82 -4 4 108 c2 60 4 133 4 162 l1 52 68 0 c50 0 79 -6 112 -22z m454 -7 c36
-34 36 -92 1 -119 -24 -19 -24 -20 -5 -33 15 -11 22 -30 26 -76 6 -58 5 -63
-13 -63 -17 0 -21 9 -26 57 -7 71 -22 83 -99 83 l-58 0 0 -70 c0 -63 -2 -70
-20 -70 -19 0 -20 7 -20 161 l0 161 94 -4 c84 -3 97 -6 120 -27z m306 14 c0
-11 -19 -15 -87 -17 l-88 -3 -3 -52 -3 -53 80 0 c65 0 81 -3 81 -15 0 -12 -16
-15 -80 -15 l-80 0 0 -55 0 -54 87 -3 c74 -3 88 -6 91 -20 3 -16 -7 -18 -107
-18 l-111 0 0 160 0 160 110 0 c90 0 110 -3 110 -15z m260 -2 c30 -20 47 -42
53 -65 4 -14 -1 -18 -19 -18 -14 0 -24 6 -24 14 0 22 -49 56 -81 56 -73 0
-109 -45 -109 -136 0 -50 3 -59 34 -90 25 -25 43 -34 68 -34 40 0 76 23 88 56
6 15 18 24 30 24 30 0 18 -36 -26 -77 -29 -28 -41 -33 -84 -33 -101 0 -150 52
-150 158 0 74 18 115 63 142 41 25 123 27 157 3z m328 0 c-2 -10 -13 -18 -28
-18 -14 -1 -37 -2 -52 -3 l-28 -2 0 -140 c0 -133 -1 -140 -20 -140 -18 0 -20
8 -22 143 l-3 142 -52 0 c-44 0 -53 3 -53 17 0 16 13 18 131 18 118 0 130 -2
127 -17z m371 -1 c47 -25 71 -74 71 -142 0 -95 -60 -160 -148 -160 -102 0
-157 64 -150 174 4 69 25 106 73 130 41 21 113 20 154 -2z m256 -108 l80 -126
3 126 c2 118 4 126 22 126 19 0 20 -7 20 -160 0 -159 0 -160 -22 -160 -18 0
-39 25 -102 125 -43 69 -83 125 -88 125 -5 0 -8 -52 -6 -125 3 -114 1 -125
-14 -125 -16 0 -18 14 -18 160 0 159 0 160 23 160 17 0 38 -26 102 -126z m771
-26 c32 -83 61 -155 62 -160 2 -4 -6 -8 -17 -8 -15 0 -26 11 -37 40 -17 41
-18 42 -89 42 -82 0 -81 0 -94 -42 -9 -29 -17 -40 -31 -40 -11 0 -20 4 -20 8
0 4 24 68 53 142 30 74 57 143 60 153 4 9 17 17 30 17 21 0 30 -16 83 -152z
m-2836 -2026 c19 -4 -570 -9 -1310 -12 l-1345 -5 -60 -23 c-33 -13 -64 -24
-70 -25 -5 -1 -18 -10 -29 -19 -10 -10 -24 -15 -29 -11 -20 12 73 63 163 89
36 10 316 13 1345 13 715 -1 1316 -4 1335 -7z m-2870 -107 c-7 -8 -10 -15 -6
-15 4 0 -16 -23 -43 -50 -52 -55 -97 -132 -127 -220 -18 -52 -19 -97 -19 -765
0 -698 0 -711 21 -770 25 -70 32 -93 27 -82 -3 4 -8 5 -13 2 -4 -2 -18 26 -31
63 l-24 67 -3 698 c-2 610 -1 707 13 760 29 113 102 246 127 231 7 -5 8 -2 3
6 -6 9 6 25 36 51 47 41 59 48 39 24z m9924 -424 c96 -34 209 -113 277 -193
113 -135 165 -291 156 -468 -6 -123 -29 -202 -89 -305 -79 -134 -211 -238
-368 -291 -53 -18 -132 -19 -2310 -19 l-2255 0 -82 32 c-107 41 -178 89 -257
174 -108 117 -176 289 -176 444 0 89 28 203 72 295 55 115 177 238 290 293
142 70 -30 66 2438 64 l2235 -2 69 -24z"/>
<path d="M14501 19292 c-24 -64 -46 -123 -49 -129 -3 -10 21 -13 98 -13 78 0
101 3 97 13 -2 6 -24 65 -48 129 -24 65 -46 118 -49 118 -3 0 -25 -53 -49
-118z"/>
<path d="M12450 18364 l0 -206 99 4 c109 3 135 15 178 77 41 61 41 191 -1 254
-42 62 -78 77 -182 77 l-94 0 0 -206z"/>
<path d="M4154 15669 c-21 -22 -52 -46 -67 -55 -16 -9 -27 -17 -24 -20 4 -4
29 0 197 36 93 20 150 27 310 36 58 3 107 7 109 10 2 2 -7 4 -20 4 -13 0 -64
5 -114 11 -49 6 -149 12 -221 14 l-131 4 -39 -40z"/>
<path d="M5860 15000 c5 -10 30 -48 56 -86 45 -67 104 -178 104 -196 0 -5 -4
-6 -10 -3 -16 10 -12 -7 11 -44 33 -55 147 -190 154 -183 3 4 3 0 0 -9 -4 -10
13 -34 46 -67 29 -29 49 -55 46 -59 -10 -9 -67 52 -141 151 -37 48 -79 100
-93 115 l-26 26 19 -32 c33 -56 137 -186 186 -234 27 -26 48 -51 48 -57 0 -5
7 -12 15 -16 12 -4 13 -2 3 14 -7 10 -9 23 -5 27 5 4 12 1 17 -7 23 -38 63
-83 163 -182 60 -60 111 -108 114 -108 3 0 -37 45 -88 101 -182 196 -324 392
-510 704 -46 77 -87 142 -91 143 -5 2 -6 7 -4 11 3 4 -1 8 -9 8 -10 0 -11 -5
-5 -17z"/>
<path d="M5258 14363 c34 -5 35 -23 1 -23 -18 0 -17 -3 9 -30 17 -16 33 -43
37 -60 4 -17 11 -28 16 -24 5 3 9 -3 9 -13 0 -14 2 -15 9 -5 6 11 11 10 25 -3
9 -9 16 -13 16 -9 0 4 7 -1 15 -12 10 -13 14 -14 15 -5 0 11 3 11 15 1 12 -10
24 -10 60 1 47 14 62 30 21 22 -13 -3 -32 0 -43 6 -10 6 -13 11 -5 11 25 0 1
20 -25 20 -20 0 -24 4 -20 20 3 11 1 18 -4 15 -5 -3 -26 6 -46 20 -21 14 -48
25 -60 25 -13 0 -23 5 -23 10 0 6 9 10 20 10 11 0 20 4 20 9 0 11 -37 21 -70
19 -19 -1 -17 -2 8 -5z"/>
<path d="M11590 14989 l0 -71 71 4 c60 3 74 8 90 27 24 30 24 52 -2 85 -19 24
-27 26 -90 26 l-69 0 0 -71z"/>
<path d="M13871 14959 c-37 -15 -50 -39 -51 -92 0 -38 5 -53 25 -72 55 -56
130 -13 130 76 0 70 -47 110 -104 88z"/>
<path d="M14864 14960 c-60 -24 -73 -112 -25 -161 16 -16 39 -29 51 -29 12 0
35 13 51 29 67 67 6 194 -77 161z"/>
<path d="M15754 14960 c-51 -20 -69 -92 -39 -150 27 -52 106 -52 132 0 41 80
-21 179 -93 150z"/>
<path d="M11616 14298 c-39 -35 -39 -116 0 -155 20 -20 31 -24 57 -19 46 9 67
39 67 98 0 85 -68 126 -124 76z"/>
<path d="M12680 14302 c-30 -24 -38 -97 -16 -140 33 -64 121 -46 140 30 23 92
-58 164 -124 110z"/>
<path d="M15863 14305 c-43 -30 -48 -132 -9 -164 30 -25 72 -24 102 2 25 22
29 32 29 77 0 44 -4 55 -28 76 -32 28 -63 31 -94 9z"/>
<path d="M12620 13652 c-50 -40 -32 -162 26 -176 61 -16 104 28 104 105 0 74
-75 115 -130 71z"/>
<path d="M13062 13663 c-7 -3 -19 -18 -27 -33 -36 -70 -1 -153 65 -153 73 0
111 113 55 168 -23 24 -61 31 -93 18z"/>
<path d="M12394 12722 c-17 -11 -34 -48 -34 -74 0 -40 27 -68 65 -68 41 0 65
29 65 77 0 53 -56 92 -96 65z"/>
<path d="M15091 12704 c-24 -30 -26 -55 -10 -87 16 -29 28 -37 61 -37 53 0 79
89 38 130 -28 28 -64 25 -89 -6z"/>
<path d="M13650 12710 c-43 -43 -13 -130 45 -130 36 0 65 33 65 75 0 42 -29
75 -65 75 -14 0 -34 -9 -45 -20z"/>
<path d="M12910 12710 c-26 -26 -26 -70 1 -104 40 -51 109 -20 109 49 0 42
-29 75 -65 75 -14 0 -34 -9 -45 -20z"/>
<path d="M12146 12191 c-10 -11 -18 -36 -18 -56 0 -44 26 -75 62 -75 37 0 60
29 60 77 0 66 -64 99 -104 54z"/>
<path d="M14747 12192 c-23 -26 -22 -94 1 -115 61 -56 136 41 86 111 -19 27
-64 29 -87 4z"/>
<path d="M15277 12192 c-24 -26 -22 -87 3 -112 24 -24 48 -25 78 -4 29 20 31
93 4 117 -24 22 -65 21 -85 -1z"/>
<path d="M13430 10906 l0 -104 85 -46 c47 -25 87 -46 90 -46 3 0 5 46 5 103
l0 102 -90 48 -90 48 0 -105z"/>
<path d="M13715 10957 l-80 -42 -3 -97 c-2 -68 1 -98 9 -98 6 0 47 19 90 41
l79 41 0 99 c0 55 -3 99 -7 99 -5 -1 -44 -20 -88 -43z"/>
<path d="M2578 9951 c-221 -72 -348 -272 -348 -546 0 -310 161 -527 421 -566
211 -33 408 68 498 254 48 97 65 177 65 307 2 267 -106 455 -306 538 -85 35
-244 41 -330 13z"/>
<path d="M8378 9720 c-1 -126 -2 -238 -2 -247 -1 -17 16 -18 199 -21 282 -4
364 13 433 92 39 45 56 104 49 181 -8 104 -55 172 -144 205 -48 18 -78 20
-293 20 l-240 0 -2 -230z"/>
<path d="M6863 8115 c-79 -22 -131 -51 -196 -114 -114 -108 -167 -249 -167
-441 0 -188 53 -332 162 -441 105 -106 259 -155 409 -130 257 41 418 260 419
568 0 287 -138 498 -365 558 -73 19 -192 18 -262 0z"/>
<path d="M1970 6055 l0 -55 63 0 c72 0 87 10 87 57 0 41 -21 53 -94 53 l-56 0
0 -55z"/>
<path d="M1972 5913 l3 -58 63 0 c55 0 67 4 83 24 24 30 24 46 -1 71 -16 16
-33 20 -85 20 l-66 0 3 -57z"/>
<path d="M2270 6050 l0 -60 58 0 c62 0 86 12 97 47 4 17 -1 29 -19 48 -21 21
-35 25 -81 25 l-55 0 0 -60z"/>
<path d="M3200 5986 c0 -104 3 -125 16 -130 18 -7 91 3 116 16 47 24 63 128
28 185 -20 34 -66 53 -127 53 l-33 0 0 -124z"/>
<path d="M5007 6103 c-4 -3 -7 -30 -7 -60 l0 -53 60 0 c47 0 64 4 80 20 48 48
6 100 -83 100 -24 0 -47 -3 -50 -7z"/>
<path d="M5610 6046 l0 -66 55 0 c46 0 60 4 80 25 30 29 31 45 6 76 -14 18
-31 23 -80 27 l-61 4 0 -66z"/>
<path d="M6757 6103 c-4 -3 -7 -59 -7 -124 0 -135 1 -136 85 -120 86 16 124
89 91 176 -12 31 -26 48 -50 59 -34 16 -107 22 -119 9z"/>
<path d="M2297 5493 c-4 -3 -7 -30 -7 -60 l0 -53 64 0 c76 0 99 16 94 64 -2
21 -11 35 -28 43 -26 13 -112 18 -123 6z"/>
<path d="M4192 5373 l3 -128 50 2 c64 4 90 18 110 58 33 72 7 161 -55 182 -19
7 -52 12 -73 12 l-38 1 3 -127z"/>
<path d="M4643 5492 c-33 -3 -33 -4 -33 -58 l0 -54 64 0 c45 0 69 5 80 16 19
19 21 68 4 82 -15 11 -70 18 -115 14z"/>
<path d="M5898 5471 c-31 -28 -33 -33 -33 -100 0 -63 3 -73 26 -97 18 -18 41
-28 71 -31 40 -5 49 -2 79 25 30 27 33 36 37 96 4 64 3 67 -31 101 -47 47
-101 49 -149 6z"/>
<path d="M8579 2361 c-49 -16 -67 -31 -78 -64 -23 -69 12 -108 117 -132 69
-16 92 -32 92 -64 0 -24 -41 -51 -76 -51 -45 0 -73 15 -84 46 -7 17 -17 24
-35 24 -37 0 -32 -35 10 -77 35 -35 36 -35 109 -31 85 4 112 20 122 75 13 68
-24 106 -122 124 -71 13 -84 22 -84 60 0 32 23 49 69 49 42 0 61 -10 72 -36 6
-17 16 -24 34 -24 28 0 30 7 13 45 -20 44 -103 73 -159 56z"/>
<path d="M9965 2358 c-96 -21 -152 -144 -110 -245 30 -71 80 -105 155 -105 76
0 129 38 146 106 5 23 3 26 -20 26 -19 0 -29 -7 -36 -24 -12 -31 -57 -66 -87
-66 -37 0 -81 27 -98 60 -23 44 -19 121 8 161 43 64 141 62 169 -2 10 -22 20
-29 41 -29 25 0 27 3 21 23 -24 77 -97 114 -189 95z"/>
<path d="M10563 2359 c-59 -17 -91 -87 -63 -140 14 -25 54 -45 110 -54 59 -9
90 -30 90 -59 0 -33 -30 -56 -74 -56 -47 0 -74 14 -86 46 -7 17 -17 24 -35 24
-29 0 -31 -10 -10 -50 38 -73 172 -87 234 -26 20 20 25 36 25 66 -2 65 -29 85
-147 105 -24 4 -43 15 -53 30 -15 23 -15 27 0 50 13 19 25 25 54 25 41 0 82
-23 82 -46 0 -9 11 -14 30 -14 30 0 30 0 17 32 -24 58 -102 89 -174 67z"/>
<path d="M7154 2343 c3 -10 33 -88 65 -173 l58 -155 34 -3 34 -3 60 167 c33
92 62 171 63 176 2 4 -10 8 -26 8 -32 0 -28 8 -116 -245 -16 -47 -11 -56 -72
120 -41 118 -42 120 -74 123 -27 3 -31 1 -26 -15z"/>
<path d="M7510 2185 l0 -175 25 0 25 0 0 175 0 175 -25 0 -25 0 0 -175z"/>
<path d="M7630 2185 l0 -175 120 0 120 0 0 25 c0 25 0 25 -95 25 l-95 0 0 50
0 49 88 3 c82 3 87 4 90 26 3 21 1 22 -87 22 l-91 0 0 50 0 50 95 0 c95 0 95
0 95 25 l0 25 -120 0 -120 0 0 -175z"/>
<path d="M7895 2348 c2 -7 23 -78 45 -158 23 -80 43 -153 46 -163 4 -13 14
-17 37 -15 30 3 31 4 57 108 15 58 30 119 34 135 7 26 13 13 45 -105 36 -135
36 -135 67 -138 l31 -3 41 148 c62 223 59 205 27 201 -27 -3 -29 -8 -60 -123
-17 -66 -34 -126 -36 -134 -3 -8 -21 46 -40 120 l-34 134 -31 3 -32 3 -33
-135 c-18 -74 -35 -134 -37 -131 -2 2 -12 39 -23 82 -46 181 -47 183 -79 183
-19 0 -28 -4 -25 -12z"/>
<path d="M8810 2185 l0 -175 120 0 120 0 0 25 c0 25 0 25 -96 25 l-95 0 3 53
3 52 88 3 c77 2 88 5 85 20 -3 14 -18 17 -91 20 l-88 3 3 52 3 52 93 3 c84 2
92 4 92 22 0 19 -7 20 -120 20 l-120 0 0 -175z"/>
<path d="M9100 2186 l0 -176 25 0 c24 0 25 2 25 70 l0 70 64 0 c39 0 68 -5 74
-12 5 -7 14 -38 19 -68 7 -50 10 -55 36 -58 27 -3 28 -2 23 32 -3 20 -8 52
-11 71 -4 20 -14 39 -25 45 -18 10 -18 11 6 35 35 35 34 102 -2 136 -23 22
-36 24 -130 27 l-104 4 0 -176z m197 108 c17 -23 16 -55 -1 -79 -11 -16 -27
-20 -78 -20 l-63 0 -3 49 c-5 76 -1 80 70 73 43 -4 66 -11 75 -23z"/>
<path d="M9384 2343 c3 -10 32 -88 65 -173 l58 -155 33 0 c37 0 31 -11 121
238 l38 107 -28 0 c-28 0 -30 -4 -78 -140 -26 -77 -50 -140 -53 -140 -3 0 -28
63 -55 140 -47 136 -49 140 -77 140 -23 0 -28 -4 -24 -17z"/>
<path d="M9740 2185 l0 -175 25 0 25 0 0 175 0 175 -25 0 -25 0 0 -175z"/>
<path d="M10210 2185 l0 -175 120 0 120 0 0 25 c0 25 0 25 -96 25 l-95 0 3 53
3 52 83 3 c74 3 82 5 82 22 0 18 -7 20 -86 20 l-85 0 3 53 3 52 90 0 c86 0 90
1 93 23 3 22 2 22 -117 22 l-121 0 0 -175z"/>
</g>
</svg>
